<svg width="49" height="48" viewBox="0 0 49 48" fill="none" xmlns="http://www.w3.org/2000/svg">
<g filter="url(#filter0_d)">
<path d="M39.0012 18.5C39.0012 17.3954 38.1058 16.5 37.0012 16.5H31.5012V19.5H35.0012C35.5535 19.5 36.0012 19.9477 36.0012 20.5V27.5C36.0012 28.0523 35.5535 28.5 35.0012 28.5H31.5012V31.5H37.0012C38.1058 31.5 39.0012 30.6046 39.0012 29.5V18.5Z" fill="#E5EFF5"/>
<path d="M25.5012 16.5H11.0012C9.89665 16.5 9.00122 17.3954 9.00122 18.5V29.5C9.00122 30.6046 9.89665 31.5 11.0012 31.5H25.5012V28.5H13.0012C12.4489 28.5 12.0012 28.0523 12.0012 27.5V20.5C12.0012 19.9477 12.4489 19.5 13.0012 19.5H25.5012V16.5Z" fill="#E5EFF5"/>
<path d="M31.5012 13.5V34.5C31.5012 34.8978 31.6593 35.2794 31.9406 35.5607C32.2219 35.842 32.6034 36 33.0012 36H36.0012V39H32.2512C31.4262 39 30.0012 38.325 30.0012 37.5C30.0012 38.325 28.5762 39 27.7512 39H24.0012V36H27.0012C27.399 36 27.7806 35.842 28.0619 35.5607C28.3432 35.2794 28.5012 34.8978 28.5012 34.5V13.5C28.5012 13.1022 28.3432 12.7206 28.0619 12.4393C27.7806 12.158 27.399 12 27.0012 12H24.0012V9H27.7512C28.5762 9 30.0012 9.675 30.0012 10.5C30.0012 9.675 31.4262 9 32.2512 9H36.0012V12H33.0012C32.6034 12 32.2219 12.158 31.9406 12.4393C31.6593 12.7206 31.5012 13.1022 31.5012 13.5Z" fill="#00A8E8"/>
</g>
<defs>
<filter id="filter0_d" x="-3.99878" y="-2" width="56" height="56" filterUnits="userSpaceOnUse" color-interpolation-filters="sRGB">
<feFlood flood-opacity="0" result="BackgroundImageFix"/>
<feColorMatrix in="SourceAlpha" type="matrix" values="0 0 0 0 0 0 0 0 0 0 0 0 0 0 0 0 0 0 127 0"/>
<feOffset dy="2"/>
<feGaussianBlur stdDeviation="2"/>
<feColorMatrix type="matrix" values="0 0 0 0 0 0 0 0 0 0 0 0 0 0 0 0 0 0 0.25 0"/>
<feBlend mode="normal" in2="BackgroundImageFix" result="effect1_dropShadow"/>
<feBlend mode="normal" in="SourceGraphic" in2="effect1_dropShadow" result="shape"/>
</filter>
</defs>
</svg>
