<svg width="49" height="48" viewBox="0 0 49 48" fill="none" xmlns="http://www.w3.org/2000/svg">
<g filter="url(#filter0_d)">
<path fill-rule="evenodd" clip-rule="evenodd" d="M8.86865 11.2935C8.86865 10.7412 9.31637 10.2935 9.86865 10.2935H39.8687C40.4209 10.2935 40.8687 10.7412 40.8687 11.2935V14.2935C40.8687 14.8457 40.4209 15.2935 39.8687 15.2935H9.86865C9.31637 15.2935 8.86865 14.8457 8.86865 14.2935V11.2935Z" fill="#E5EFF5"/>
<path fill-rule="evenodd" clip-rule="evenodd" d="M8.86865 18.2935C8.86865 17.7412 9.31637 17.2935 9.86865 17.2935H39.8687C40.4209 17.2935 40.8687 17.7412 40.8687 18.2935V21.2935C40.8687 21.8457 40.4209 22.2935 39.8687 22.2935H9.86865C9.31637 22.2935 8.86865 21.8457 8.86865 21.2935V18.2935Z" fill="#E5EFF5"/>
<path fill-rule="evenodd" clip-rule="evenodd" d="M8.86865 24.9995C8.86865 24.4472 9.31637 23.9995 9.86865 23.9995H39.8687C40.4209 23.9995 40.8687 24.4472 40.8687 24.9995V27.9995C40.8687 28.5518 40.4209 28.9995 39.8687 28.9995H9.86865C9.31637 28.9995 8.86865 28.5518 8.86865 27.9995V24.9995Z" fill="#E5EFF5"/>
<path d="M39.8687 31H26.8687C26.3164 31 25.8687 31.4477 25.8687 32V35C25.8687 35.5523 26.3164 36 26.8687 36H39.8687C40.4209 36 40.8687 35.5523 40.8687 35V32C40.8687 31.4477 40.4209 31 39.8687 31Z" fill="#D72323"/>
<rect x="8.86865" y="31" width="15" height="5" rx="1" fill="#00A8E8"/>
</g>
<defs>
<filter id="filter0_d" x="-3.13135" y="-2" width="56" height="56" filterUnits="userSpaceOnUse" color-interpolation-filters="sRGB">
<feFlood flood-opacity="0" result="BackgroundImageFix"/>
<feColorMatrix in="SourceAlpha" type="matrix" values="0 0 0 0 0 0 0 0 0 0 0 0 0 0 0 0 0 0 127 0"/>
<feOffset dy="2"/>
<feGaussianBlur stdDeviation="2"/>
<feColorMatrix type="matrix" values="0 0 0 0 0 0 0 0 0 0 0 0 0 0 0 0 0 0 0.25 0"/>
<feBlend mode="normal" in2="BackgroundImageFix" result="effect1_dropShadow"/>
<feBlend mode="normal" in="SourceGraphic" in2="effect1_dropShadow" result="shape"/>
</filter>
</defs>
</svg>
