<svg width="199" height="48" viewBox="0 0 199 48" fill="none" xmlns="http://www.w3.org/2000/svg">
<g filter="url(#filter0_d)">
<path fill-rule="evenodd" clip-rule="evenodd" d="M8.00195 11.2935C8.00195 10.7412 8.44967 10.2935 9.00195 10.2935H39.002C39.5542 10.2935 40.002 10.7412 40.002 11.2935V14.2935C40.002 14.8457 39.5542 15.2935 39.002 15.2935H9.00195C8.44967 15.2935 8.00195 14.8457 8.00195 14.2935V11.2935Z" fill="#E5EFF5"/>
<path fill-rule="evenodd" clip-rule="evenodd" d="M8.00195 18.2935C8.00195 17.7412 8.44967 17.2935 9.00195 17.2935H39.002C39.5542 17.2935 40.002 17.7412 40.002 18.2935V21.2935C40.002 21.8457 39.5542 22.2935 39.002 22.2935H9.00195C8.44967 22.2935 8.00195 21.8457 8.00195 21.2935V18.2935Z" fill="#E5EFF5"/>
<path fill-rule="evenodd" clip-rule="evenodd" d="M8.00195 24.9995C8.00195 24.4472 8.44967 23.9995 9.00195 23.9995H39.002C39.5542 23.9995 40.002 24.4472 40.002 24.9995V27.9995C40.002 28.5518 39.5542 28.9995 39.002 28.9995H9.00195C8.44967 28.9995 8.00195 28.5518 8.00195 27.9995V24.9995Z" fill="#E5EFF5"/>
<path d="M39.002 31H26.002C25.4497 31 25.002 31.4477 25.002 32V35C25.002 35.5523 25.4497 36 26.002 36H39.002C39.5542 36 40.002 35.5523 40.002 35V32C40.002 31.4477 39.5542 31 39.002 31Z" fill="#D72323"/>
<rect x="8.00195" y="31" width="15" height="5" rx="1" fill="#00A8E8"/>
</g>
<g filter="url(#filter1_d)">
<path d="M69.51 19.024C70.542 16.792 72.414 15.676 75.126 15.676V18.952C73.59 18.88 72.27 19.288 71.166 20.176C70.062 21.064 69.51 22.492 69.51 24.46V34H66.378V16H69.51V19.024ZM92.1101 16H95.2421V34H92.1101V30.904C90.5501 33.28 88.2821 34.468 85.3061 34.468C82.7861 34.468 80.6381 33.556 78.8621 31.732C77.0861 29.884 76.1981 27.64 76.1981 25C76.1981 22.36 77.0861 20.128 78.8621 18.304C80.6381 16.456 82.7861 15.532 85.3061 15.532C88.2821 15.532 90.5501 16.72 92.1101 19.096V16ZM85.7021 31.444C87.5261 31.444 89.0501 30.832 90.2741 29.608C91.4981 28.36 92.1101 26.824 92.1101 25C92.1101 23.176 91.4981 21.652 90.2741 20.428C89.0501 19.18 87.5261 18.556 85.7021 18.556C83.9021 18.556 82.3901 19.18 81.1661 20.428C79.9421 21.652 79.3301 23.176 79.3301 25C79.3301 26.824 79.9421 28.36 81.1661 29.608C82.3901 30.832 83.9021 31.444 85.7021 31.444ZM115.215 34H111.327L103.119 25.468V34H99.9873V8.8H103.119V23.956L110.895 16H114.927L106.323 24.712L115.215 34ZM118.672 26.44C118.984 28.048 119.716 29.296 120.868 30.184C122.044 31.072 123.484 31.516 125.188 31.516C127.564 31.516 129.292 30.64 130.372 28.888L133.036 30.4C131.284 33.112 128.644 34.468 125.116 34.468C122.26 34.468 119.932 33.58 118.132 31.804C116.356 30.004 115.468 27.736 115.468 25C115.468 22.288 116.344 20.032 118.096 18.232C119.848 16.432 122.116 15.532 124.9 15.532C127.54 15.532 129.688 16.468 131.344 18.34C133.024 20.188 133.864 22.42 133.864 25.036C133.864 25.492 133.828 25.96 133.756 26.44H118.672ZM124.9 18.484C123.22 18.484 121.828 18.964 120.724 19.924C119.62 20.86 118.936 22.12 118.672 23.704H130.696C130.432 22 129.76 20.704 128.68 19.816C127.6 18.928 126.34 18.484 124.9 18.484ZM138.002 34.396C137.354 34.396 136.802 34.168 136.346 33.712C135.89 33.256 135.662 32.704 135.662 32.056C135.662 31.408 135.89 30.856 136.346 30.4C136.802 29.944 137.354 29.716 138.002 29.716C138.674 29.716 139.226 29.944 139.658 30.4C140.114 30.856 140.342 31.408 140.342 32.056C140.342 32.704 140.114 33.256 139.658 33.712C139.226 34.168 138.674 34.396 138.002 34.396ZM147.908 19.024C148.94 16.792 150.812 15.676 153.524 15.676V18.952C151.988 18.88 150.668 19.288 149.564 20.176C148.46 21.064 147.908 22.492 147.908 24.46V34H144.776V16H147.908V19.024ZM157.801 26.44C158.113 28.048 158.845 29.296 159.997 30.184C161.173 31.072 162.613 31.516 164.317 31.516C166.693 31.516 168.421 30.64 169.501 28.888L172.165 30.4C170.413 33.112 167.773 34.468 164.245 34.468C161.389 34.468 159.061 33.58 157.261 31.804C155.485 30.004 154.597 27.736 154.597 25C154.597 22.288 155.473 20.032 157.225 18.232C158.977 16.432 161.245 15.532 164.029 15.532C166.669 15.532 168.817 16.468 170.473 18.34C172.153 20.188 172.993 22.42 172.993 25.036C172.993 25.492 172.957 25.96 172.885 26.44H157.801ZM164.029 18.484C162.349 18.484 160.957 18.964 159.853 19.924C158.749 20.86 158.065 22.12 157.801 23.704H169.825C169.561 22 168.889 20.704 167.809 19.816C166.729 18.928 165.469 18.484 164.029 18.484ZM191.462 8.8H194.594V34H191.462V30.904C189.902 33.28 187.634 34.468 184.658 34.468C182.138 34.468 179.99 33.556 178.214 31.732C176.438 29.884 175.55 27.64 175.55 25C175.55 22.36 176.438 20.128 178.214 18.304C179.99 16.456 182.138 15.532 184.658 15.532C187.634 15.532 189.902 16.72 191.462 19.096V8.8ZM185.054 31.444C186.878 31.444 188.402 30.832 189.626 29.608C190.85 28.36 191.462 26.824 191.462 25C191.462 23.176 190.85 21.652 189.626 20.428C188.402 19.18 186.878 18.556 185.054 18.556C183.254 18.556 181.742 19.18 180.518 20.428C179.294 21.652 178.682 23.176 178.682 25C178.682 26.824 179.294 28.36 180.518 29.608C181.742 30.832 183.254 31.444 185.054 31.444Z" fill="white"/>
</g>
<defs>
<filter id="filter0_d" x="-3.99805" y="-2" width="56" height="56" filterUnits="userSpaceOnUse" color-interpolation-filters="sRGB">
<feFlood flood-opacity="0" result="BackgroundImageFix"/>
<feColorMatrix in="SourceAlpha" type="matrix" values="0 0 0 0 0 0 0 0 0 0 0 0 0 0 0 0 0 0 127 0"/>
<feOffset dy="2"/>
<feGaussianBlur stdDeviation="2"/>
<feColorMatrix type="matrix" values="0 0 0 0 0 0 0 0 0 0 0 0 0 0 0 0 0 0 0.25 0"/>
<feBlend mode="normal" in2="BackgroundImageFix" result="effect1_dropShadow"/>
<feBlend mode="normal" in="SourceGraphic" in2="effect1_dropShadow" result="shape"/>
</filter>
<filter id="filter1_d" x="62.3779" y="6.7998" width="136.216" height="33.668" filterUnits="userSpaceOnUse" color-interpolation-filters="sRGB">
<feFlood flood-opacity="0" result="BackgroundImageFix"/>
<feColorMatrix in="SourceAlpha" type="matrix" values="0 0 0 0 0 0 0 0 0 0 0 0 0 0 0 0 0 0 127 0"/>
<feOffset dy="2"/>
<feGaussianBlur stdDeviation="2"/>
<feColorMatrix type="matrix" values="0 0 0 0 0 0 0 0 0 0 0 0 0 0 0 0 0 0 0.25 0"/>
<feBlend mode="normal" in2="BackgroundImageFix" result="effect1_dropShadow"/>
<feBlend mode="normal" in="SourceGraphic" in2="effect1_dropShadow" result="shape"/>
</filter>
</defs>
</svg>
