<svg width="49" height="48" viewBox="0 0 49 48" fill="none" xmlns="http://www.w3.org/2000/svg">
<g filter="url(#filter0_d)">
<path fill-rule="evenodd" clip-rule="evenodd" d="M6.00244 12.147C6.00244 11.5947 6.50612 11.147 7.12744 11.147H40.8774C41.4988 11.147 42.0024 11.5947 42.0024 12.147V15.147C42.0024 15.6993 41.4988 16.147 40.8774 16.147H7.12744C6.50612 16.147 6.00244 15.6993 6.00244 15.147V12.147Z" fill="#E5EFF5"/>
<path fill-rule="evenodd" clip-rule="evenodd" d="M6.00244 19.147C6.00244 18.5947 6.50612 18.147 7.12744 18.147H40.8774C41.4988 18.147 42.0024 18.5947 42.0024 19.147V22.147C42.0024 22.6993 41.4988 23.147 40.8774 23.147H7.12744C6.50612 23.147 6.00244 22.6993 6.00244 22.147V19.147Z" fill="#E5EFF5"/>
<path fill-rule="evenodd" clip-rule="evenodd" d="M6.00244 26.147C6.00244 25.5947 6.50612 25.147 7.12744 25.147H40.8774C41.4988 25.147 42.0024 25.5947 42.0024 26.147V29.147C42.0024 29.6993 41.4988 30.147 40.8774 30.147H7.12744C6.50612 30.147 6.00244 29.6993 6.00244 29.147V26.147Z" fill="#E5EFF5"/>
<path d="M41.0024 32.147H26.0024C25.4502 32.147 25.0024 32.5947 25.0024 33.147V36.147C25.0024 36.6993 25.4502 37.147 26.0024 37.147H41.0024C41.5547 37.147 42.0024 36.6993 42.0024 36.147V33.147C42.0024 32.5947 41.5547 32.147 41.0024 32.147Z" fill="#D72323"/>
<rect x="6.00244" y="32.147" width="17" height="5" rx="1" fill="#00A8E8"/>
</g>
<defs>
<filter id="filter0_d" x="-3.99756" y="-2" width="56" height="56" filterUnits="userSpaceOnUse" color-interpolation-filters="sRGB">
<feFlood flood-opacity="0" result="BackgroundImageFix"/>
<feColorMatrix in="SourceAlpha" type="matrix" values="0 0 0 0 0 0 0 0 0 0 0 0 0 0 0 0 0 0 127 0"/>
<feOffset dy="2"/>
<feGaussianBlur stdDeviation="2"/>
<feColorMatrix type="matrix" values="0 0 0 0 0 0 0 0 0 0 0 0 0 0 0 0 0 0 0.25 0"/>
<feBlend mode="normal" in2="BackgroundImageFix" result="effect1_dropShadow"/>
<feBlend mode="normal" in="SourceGraphic" in2="effect1_dropShadow" result="shape"/>
</filter>
</defs>
</svg>
