<svg width="49" height="48" viewBox="0 0 49 48" fill="none" xmlns="http://www.w3.org/2000/svg">
<g filter="url(#filter0_d)">
<path d="M31.286 21.2607C31.286 24.8049 28.4128 27.678 24.8686 27.678C21.3243 27.678 18.4512 24.8049 18.4512 21.2607C18.4512 17.7164 21.3243 14.8433 24.8686 14.8433C28.4128 14.8433 31.286 17.7164 31.286 21.2607Z" fill="#00A8E8"/>
<path fill-rule="evenodd" clip-rule="evenodd" d="M24.8683 6C33.2966 6 40.1292 12.8325 40.1292 21.2609C40.1292 29.6892 34.9239 34.4211 24.8683 42C14.8127 34.4211 9.60742 29.6892 9.60742 21.2609C9.60742 12.8325 16.4399 6 24.8683 6ZM24.869 9.75659C31.2227 9.75659 36.3734 14.9073 36.3734 21.2609C36.3734 27.6146 31.2227 32.7653 24.869 32.7653C18.5154 32.7653 13.3647 27.6146 13.3647 21.2609C13.3647 14.9073 18.5154 9.75659 24.869 9.75659Z" fill="#E5EFF5"/>
</g>
<defs>
<filter id="filter0_d" x="-3.13428" y="-2" width="56" height="56" filterUnits="userSpaceOnUse" color-interpolation-filters="sRGB">
<feFlood flood-opacity="0" result="BackgroundImageFix"/>
<feColorMatrix in="SourceAlpha" type="matrix" values="0 0 0 0 0 0 0 0 0 0 0 0 0 0 0 0 0 0 127 0"/>
<feOffset dy="2"/>
<feGaussianBlur stdDeviation="2"/>
<feColorMatrix type="matrix" values="0 0 0 0 0 0 0 0 0 0 0 0 0 0 0 0 0 0 0.25 0"/>
<feBlend mode="normal" in2="BackgroundImageFix" result="effect1_dropShadow"/>
<feBlend mode="normal" in="SourceGraphic" in2="effect1_dropShadow" result="shape"/>
</filter>
</defs>
</svg>
