<svg width="365" height="48" viewBox="0 0 365 48" fill="none" xmlns="http://www.w3.org/2000/svg">
<g filter="url(#filter0_d)">
<path d="M66.3784 34V7.72H69.5104V34H66.3784ZM76.4846 26.44C76.7966 28.048 77.5286 29.296 78.6806 30.184C79.8566 31.072 81.2966 31.516 83.0006 31.516C85.3766 31.516 87.1046 30.64 88.1846 28.888L90.8486 30.4C89.0966 33.112 86.4566 34.468 82.9286 34.468C80.0726 34.468 77.7446 33.58 75.9446 31.804C74.1686 30.004 73.2806 27.736 73.2806 25C73.2806 22.288 74.1566 20.032 75.9086 18.232C77.6606 16.432 79.9286 15.532 82.7126 15.532C85.3526 15.532 87.5006 16.468 89.1566 18.34C90.8366 20.188 91.6766 22.42 91.6766 25.036C91.6766 25.492 91.6406 25.96 91.5686 26.44H76.4846ZM82.7126 18.484C81.0326 18.484 79.6406 18.964 78.5366 19.924C77.4326 20.86 76.7486 22.12 76.4846 23.704H88.5086C88.2446 22 87.5726 20.704 86.4926 19.816C85.4126 18.928 84.1526 18.484 82.7126 18.484ZM110.146 16H113.278V34H110.146V30.904C108.586 33.28 106.318 34.468 103.342 34.468C100.822 34.468 98.6737 33.556 96.8977 31.732C95.1217 29.884 94.2337 27.64 94.2337 25C94.2337 22.36 95.1217 20.128 96.8977 18.304C98.6737 16.456 100.822 15.532 103.342 15.532C106.318 15.532 108.586 16.72 110.146 19.096V16ZM103.738 31.444C105.562 31.444 107.086 30.832 108.31 29.608C109.534 28.36 110.146 26.824 110.146 25C110.146 23.176 109.534 21.652 108.31 20.428C107.086 19.18 105.562 18.556 103.738 18.556C101.938 18.556 100.426 19.18 99.2017 20.428C97.9777 21.652 97.3657 23.176 97.3657 25C97.3657 26.824 97.9777 28.36 99.2017 29.608C100.426 30.832 101.938 31.444 103.738 31.444ZM127.275 8.332C128.715 8.332 130.395 8.512 132.315 8.872V34H129.183V11.212C128.319 11.164 127.683 11.14 127.275 11.14C125.667 11.14 124.467 11.476 123.675 12.148C122.907 12.82 122.523 13.924 122.523 15.46V16H126.267V19.024H122.523V34H119.391V19.024H116.511V16H119.391V15.46C119.391 10.708 122.019 8.332 127.275 8.332ZM139.309 26.44C139.621 28.048 140.353 29.296 141.505 30.184C142.681 31.072 144.121 31.516 145.825 31.516C148.201 31.516 149.929 30.64 151.009 28.888L153.673 30.4C151.921 33.112 149.281 34.468 145.753 34.468C142.897 34.468 140.569 33.58 138.769 31.804C136.993 30.004 136.105 27.736 136.105 25C136.105 22.288 136.981 20.032 138.733 18.232C140.485 16.432 142.753 15.532 145.537 15.532C148.177 15.532 150.325 16.468 151.981 18.34C153.661 20.188 154.501 22.42 154.501 25.036C154.501 25.492 154.465 25.96 154.393 26.44H139.309ZM145.537 18.484C143.857 18.484 142.465 18.964 141.361 19.924C140.257 20.86 139.573 22.12 139.309 23.704H151.333C151.069 22 150.397 20.704 149.317 19.816C148.237 18.928 146.977 18.484 145.537 18.484ZM167.366 19.024H162.578V28.78C162.578 29.668 162.746 30.304 163.082 30.688C163.442 31.048 163.982 31.24 164.702 31.264C165.422 31.264 166.31 31.24 167.366 31.192V34C164.63 34.36 162.626 34.144 161.354 33.352C160.082 32.536 159.446 31.012 159.446 28.78V19.024H155.882V16H159.446V11.896L162.578 10.96V16H167.366V19.024ZM171.117 24.46V21.436H184.257V24.46H171.117ZM204.26 16H207.356V33.244C207.356 35.908 206.456 37.972 204.656 39.436C202.856 40.924 200.696 41.668 198.176 41.668C196.16 41.668 194.42 41.284 192.956 40.516C191.492 39.772 190.388 38.692 189.644 37.276L192.38 35.728C193.364 37.744 195.32 38.752 198.248 38.752C200.12 38.752 201.584 38.26 202.64 37.276C203.72 36.292 204.26 34.948 204.26 33.244V30.688C202.676 33.088 200.42 34.288 197.492 34.288C194.924 34.288 192.752 33.376 190.976 31.552C189.2 29.728 188.312 27.508 188.312 24.892C188.312 22.276 189.2 20.068 190.976 18.268C192.752 16.444 194.924 15.532 197.492 15.532C200.444 15.532 202.7 16.72 204.26 19.096V16ZM193.28 29.464C194.504 30.688 196.028 31.3 197.852 31.3C199.676 31.3 201.2 30.688 202.424 29.464C203.648 28.24 204.26 26.716 204.26 24.892C204.26 23.092 203.648 21.58 202.424 20.356C201.2 19.132 199.676 18.52 197.852 18.52C196.028 18.52 194.504 19.132 193.28 20.356C192.056 21.58 191.444 23.092 191.444 24.892C191.444 26.716 192.056 28.24 193.28 29.464ZM214.297 26.44C214.609 28.048 215.341 29.296 216.493 30.184C217.669 31.072 219.109 31.516 220.813 31.516C223.189 31.516 224.917 30.64 225.997 28.888L228.661 30.4C226.909 33.112 224.269 34.468 220.741 34.468C217.885 34.468 215.557 33.58 213.757 31.804C211.981 30.004 211.093 27.736 211.093 25C211.093 22.288 211.969 20.032 213.721 18.232C215.473 16.432 217.741 15.532 220.525 15.532C223.165 15.532 225.313 16.468 226.969 18.34C228.649 20.188 229.489 22.42 229.489 25.036C229.489 25.492 229.453 25.96 229.381 26.44H214.297ZM220.525 18.484C218.845 18.484 217.453 18.964 216.349 19.924C215.245 20.86 214.561 22.12 214.297 23.704H226.321C226.057 22 225.385 20.704 224.305 19.816C223.225 18.928 221.965 18.484 220.525 18.484ZM248.246 31.732C246.398 33.556 244.154 34.468 241.514 34.468C238.874 34.468 236.63 33.556 234.782 31.732C232.958 29.908 232.046 27.664 232.046 25C232.046 22.336 232.958 20.092 234.782 18.268C236.63 16.444 238.874 15.532 241.514 15.532C244.154 15.532 246.398 16.444 248.246 18.268C250.094 20.092 251.018 22.336 251.018 25C251.018 27.664 250.094 29.908 248.246 31.732ZM241.514 31.408C243.314 31.408 244.826 30.796 246.05 29.572C247.274 28.348 247.886 26.824 247.886 25C247.886 23.176 247.274 21.652 246.05 20.428C244.826 19.204 243.314 18.592 241.514 18.592C239.738 18.592 238.238 19.204 237.014 20.428C235.79 21.652 235.178 23.176 235.178 25C235.178 26.824 235.79 28.348 237.014 29.572C238.238 30.796 239.738 31.408 241.514 31.408ZM257.024 20.86C257.024 21.556 257.372 22.12 258.068 22.552C258.764 22.96 259.604 23.296 260.588 23.56C261.572 23.8 262.556 24.088 263.54 24.424C264.524 24.736 265.364 25.288 266.06 26.08C266.756 26.848 267.104 27.844 267.104 29.068C267.104 30.7 266.468 32.008 265.196 32.992C263.948 33.976 262.34 34.468 260.372 34.468C258.62 34.468 257.12 34.084 255.872 33.316C254.624 32.548 253.736 31.528 253.208 30.256L255.908 28.708C256.196 29.572 256.736 30.256 257.528 30.76C258.32 31.264 259.268 31.516 260.372 31.516C261.404 31.516 262.256 31.324 262.928 30.94C263.6 30.532 263.936 29.908 263.936 29.068C263.936 28.372 263.588 27.82 262.892 27.412C262.196 26.98 261.356 26.644 260.372 26.404C259.388 26.14 258.404 25.84 257.42 25.504C256.436 25.168 255.596 24.616 254.9 23.848C254.204 23.08 253.856 22.096 253.856 20.896C253.856 19.336 254.456 18.052 255.656 17.044C256.88 16.036 258.404 15.532 260.228 15.532C261.692 15.532 262.988 15.868 264.116 16.54C265.268 17.188 266.132 18.1 266.708 19.276L264.08 20.752C263.432 19.216 262.148 18.448 260.228 18.448C259.34 18.448 258.584 18.664 257.96 19.096C257.336 19.504 257.024 20.092 257.024 20.86ZM272.516 26.44C272.828 28.048 273.56 29.296 274.712 30.184C275.888 31.072 277.328 31.516 279.032 31.516C281.408 31.516 283.136 30.64 284.216 28.888L286.88 30.4C285.128 33.112 282.488 34.468 278.96 34.468C276.104 34.468 273.776 33.58 271.976 31.804C270.2 30.004 269.312 27.736 269.312 25C269.312 22.288 270.188 20.032 271.94 18.232C273.692 16.432 275.96 15.532 278.744 15.532C281.384 15.532 283.532 16.468 285.188 18.34C286.868 20.188 287.708 22.42 287.708 25.036C287.708 25.492 287.672 25.96 287.6 26.44H272.516ZM278.744 18.484C277.064 18.484 275.672 18.964 274.568 19.924C273.464 20.86 272.78 22.12 272.516 23.704H284.54C284.276 22 283.604 20.704 282.524 19.816C281.444 18.928 280.184 18.484 278.744 18.484ZM306.177 16H309.309V34H306.177V30.904C304.617 33.28 302.349 34.468 299.373 34.468C296.853 34.468 294.705 33.556 292.929 31.732C291.153 29.884 290.265 27.64 290.265 25C290.265 22.36 291.153 20.128 292.929 18.304C294.705 16.456 296.853 15.532 299.373 15.532C302.349 15.532 304.617 16.72 306.177 19.096V16ZM299.769 31.444C301.593 31.444 303.117 30.832 304.341 29.608C305.565 28.36 306.177 26.824 306.177 25C306.177 23.176 305.565 21.652 304.341 20.428C303.117 19.18 301.593 18.556 299.769 18.556C297.969 18.556 296.457 19.18 295.233 20.428C294.009 21.652 293.397 23.176 293.397 25C293.397 26.824 294.009 28.36 295.233 29.608C296.457 30.832 297.969 31.444 299.769 31.444ZM317.186 19.024C318.218 16.792 320.09 15.676 322.802 15.676V18.952C321.266 18.88 319.946 19.288 318.842 20.176C317.738 21.064 317.186 22.492 317.186 24.46V34H314.054V16H317.186V19.024ZM333.342 34.468C330.63 34.468 328.374 33.568 326.574 31.768C324.774 29.944 323.874 27.688 323.874 25C323.874 22.312 324.774 20.068 326.574 18.268C328.374 16.444 330.63 15.532 333.342 15.532C335.118 15.532 336.714 15.964 338.13 16.828C339.546 17.668 340.602 18.808 341.298 20.248L338.67 21.76C338.214 20.8 337.506 20.032 336.546 19.456C335.61 18.88 334.542 18.592 333.342 18.592C331.542 18.592 330.03 19.204 328.806 20.428C327.606 21.652 327.006 23.176 327.006 25C327.006 26.8 327.606 28.312 328.806 29.536C330.03 30.76 331.542 31.372 333.342 31.372C334.542 31.372 335.622 31.096 336.582 30.544C337.542 29.968 338.274 29.2 338.778 28.24L341.442 29.788C340.674 31.204 339.57 32.344 338.13 33.208C336.69 34.048 335.094 34.468 333.342 34.468ZM353.499 15.532C355.611 15.532 357.303 16.204 358.575 17.548C359.847 18.868 360.483 20.668 360.483 22.948V34H357.351V23.128C357.351 21.664 356.955 20.536 356.163 19.744C355.371 18.928 354.279 18.52 352.887 18.52C351.327 18.52 350.067 19.012 349.107 19.996C348.147 20.956 347.667 22.444 347.667 24.46V34H344.535V8.8H347.667V18.592C348.939 16.552 350.883 15.532 353.499 15.532Z" fill="white"/>
</g>
<g filter="url(#filter1_d)">
<path d="M30.4202 21.2607C30.4202 24.8049 27.5471 27.678 24.0028 27.678C20.4586 27.678 17.5854 24.8049 17.5854 21.2607C17.5854 17.7164 20.4586 14.8433 24.0028 14.8433C27.5471 14.8433 30.4202 17.7164 30.4202 21.2607Z" fill="#7EB77F"/>
<path fill-rule="evenodd" clip-rule="evenodd" d="M24.0026 6C32.4309 6 39.2634 12.8325 39.2634 21.2609C39.2634 29.6892 34.0581 34.4211 24.0026 42C13.947 34.4211 8.7417 29.6892 8.7417 21.2609C8.7417 12.8325 15.5742 6 24.0026 6ZM24.0033 9.75659C30.357 9.75659 35.5077 14.9073 35.5077 21.2609C35.5077 27.6146 30.357 32.7653 24.0033 32.7653C17.6496 32.7653 12.499 27.6146 12.499 21.2609C12.499 14.9073 17.6496 9.75659 24.0033 9.75659Z" fill="#E5EFF5"/>
</g>
<defs>
<filter id="filter0_d" x="62.3784" y="5.72021" width="302.104" height="41.948" filterUnits="userSpaceOnUse" color-interpolation-filters="sRGB">
<feFlood flood-opacity="0" result="BackgroundImageFix"/>
<feColorMatrix in="SourceAlpha" type="matrix" values="0 0 0 0 0 0 0 0 0 0 0 0 0 0 0 0 0 0 127 0"/>
<feOffset dy="2"/>
<feGaussianBlur stdDeviation="2"/>
<feColorMatrix type="matrix" values="0 0 0 0 0 0 0 0 0 0 0 0 0 0 0 0 0 0 0.25 0"/>
<feBlend mode="normal" in2="BackgroundImageFix" result="effect1_dropShadow"/>
<feBlend mode="normal" in="SourceGraphic" in2="effect1_dropShadow" result="shape"/>
</filter>
<filter id="filter1_d" x="-4" y="-2" width="56" height="56" filterUnits="userSpaceOnUse" color-interpolation-filters="sRGB">
<feFlood flood-opacity="0" result="BackgroundImageFix"/>
<feColorMatrix in="SourceAlpha" type="matrix" values="0 0 0 0 0 0 0 0 0 0 0 0 0 0 0 0 0 0 127 0"/>
<feOffset dy="2"/>
<feGaussianBlur stdDeviation="2"/>
<feColorMatrix type="matrix" values="0 0 0 0 0 0 0 0 0 0 0 0 0 0 0 0 0 0 0.25 0"/>
<feBlend mode="normal" in2="BackgroundImageFix" result="effect1_dropShadow"/>
<feBlend mode="normal" in="SourceGraphic" in2="effect1_dropShadow" result="shape"/>
</filter>
</defs>
</svg>
