<svg width="44" height="36" viewBox="0 0 44 36" fill="none" xmlns="http://www.w3.org/2000/svg">
<g filter="url(#filter0_d)">
<path d="M21.5561 11.3795C20.2467 9.89029 18.5251 8.82277 16.609 8.31197C14.6929 7.80117 12.6683 7.87003 10.7914 8.50986C8.9144 9.14968 7.26931 10.3317 6.06413 11.9065C4.85895 13.4813 4.14781 15.3781 4.02064 17.357C3.89347 19.336 4.35599 21.3082 5.34969 23.0243C6.3434 24.7404 7.82367 26.1232 9.60331 26.998C11.383 27.8728 13.382 28.2003 15.3478 27.9389C17.3135 27.6776 19.1576 26.8392 20.6468 25.5298L19.0583 23.7231C17.9264 24.7183 16.5248 25.3555 15.0307 25.5541C13.5366 25.7528 12.0172 25.5039 10.6646 24.839C9.31196 24.1741 8.18687 23.1231 7.4316 21.8187C6.67632 20.5144 6.32479 19.0154 6.42144 17.5113C6.5181 16.0072 7.0586 14.5655 7.97461 13.3686C8.89062 12.1717 10.141 11.2732 11.5676 10.7869C12.9942 10.3006 14.533 10.2483 15.9893 10.6365C17.4457 11.0248 18.7542 11.8362 19.7494 12.9681L26.113 21.2613L27.9999 19.8247L21.5561 11.3795Z" fill="#E5EFF5"/>
<path d="M22.4439 24.6205C23.7533 26.1097 25.4749 27.1772 27.391 27.688C29.3071 28.1988 31.3316 28.13 33.2086 27.4901C35.0856 26.8503 36.7307 25.6683 37.9359 24.0935C39.1411 22.5187 39.8522 20.6219 39.9794 18.643C40.1065 16.664 39.644 14.6918 38.6503 12.9757C37.6566 11.2596 36.1763 9.87677 34.3967 9.00197C32.617 8.12717 30.618 7.79974 28.6522 8.06109C26.6865 8.32244 24.8424 9.16082 23.3532 10.4702L24.9417 12.2769C26.0736 11.2817 27.4752 10.6445 28.9693 10.4459C30.4634 10.2472 31.9828 10.4961 33.3354 11.161C34.688 11.8259 35.8131 12.8769 36.5684 14.1813C37.3237 15.4856 37.6752 16.9846 37.5786 18.4887C37.4819 19.9928 36.9414 21.4345 36.0254 22.6314C35.1094 23.8283 33.859 24.7268 32.4324 25.2131C31.0058 25.6994 29.467 25.7517 28.0107 25.3635C26.5543 24.9752 25.2458 24.1638 24.2506 23.0319L17.887 14.7387L16.0001 16.1753L22.4439 24.6205Z" fill="#E5EFF5"/>
</g>
<defs>
<filter id="filter0_d" x="0" y="-2" width="44" height="44" filterUnits="userSpaceOnUse" color-interpolation-filters="sRGB">
<feFlood flood-opacity="0" result="BackgroundImageFix"/>
<feColorMatrix in="SourceAlpha" type="matrix" values="0 0 0 0 0 0 0 0 0 0 0 0 0 0 0 0 0 0 127 0"/>
<feOffset dy="2"/>
<feGaussianBlur stdDeviation="2"/>
<feColorMatrix type="matrix" values="0 0 0 0 0 0 0 0 0 0 0 0 0 0 0 0 0 0 0.25 0"/>
<feBlend mode="normal" in2="BackgroundImageFix" result="effect1_dropShadow"/>
<feBlend mode="normal" in="SourceGraphic" in2="effect1_dropShadow" result="shape"/>
</filter>
</defs>
</svg>
