<svg width="49" height="48" viewBox="0 0 49 48" fill="none" xmlns="http://www.w3.org/2000/svg">
<g filter="url(#filter0_d)">
<path d="M40.5005 19C40.5005 19.5523 40.0528 20 39.5005 20H9.50049C8.9482 20 8.50049 19.5523 8.50049 19V11C8.50049 10.4477 8.9482 10 9.50049 10H39.5005C40.0528 10 40.5005 10.4477 40.5005 11V19Z" fill="#00A8E8"/>
<path d="M9.50049 30C8.9482 30 8.50049 29.5523 8.50049 29V29C8.50049 28.4477 8.9482 28 9.50049 28H39.5005C40.0528 28 40.5005 28.4477 40.5005 29V29C40.5005 29.5523 40.0528 30 39.5005 30H9.50049Z" fill="#E5EFF5"/>
<path d="M24.5005 25C24.5005 25.5523 24.0528 26 23.5005 26H9.50049C8.9482 26 8.50049 25.5523 8.50049 25V25C8.50049 24.4477 8.9482 24 9.50049 24H23.5005C24.0528 24 24.5005 24.4477 24.5005 25V25Z" fill="#E5EFF5"/>
<path d="M8.50049 33C8.50049 33.5523 8.9482 34 9.50049 34H31.5005C32.0528 34 32.5005 33.5523 32.5005 33V33C32.5005 32.4477 32.0528 32 31.5005 32H9.50049C8.9482 32 8.50049 32.4477 8.50049 33V33Z" fill="#E5EFF5"/>
<path d="M36.5005 37C36.5005 37.5523 36.0528 38 35.5005 38H9.50049C8.9482 38 8.50049 37.5523 8.50049 37V37C8.50049 36.4477 8.9482 36 9.50049 36H35.5005C36.0528 36 36.5005 36.4477 36.5005 37V37Z" fill="#E5EFF5"/>
</g>
<defs>
<filter id="filter0_d" x="-3.49951" y="-2" width="56" height="56" filterUnits="userSpaceOnUse" color-interpolation-filters="sRGB">
<feFlood flood-opacity="0" result="BackgroundImageFix"/>
<feColorMatrix in="SourceAlpha" type="matrix" values="0 0 0 0 0 0 0 0 0 0 0 0 0 0 0 0 0 0 127 0"/>
<feOffset dy="2"/>
<feGaussianBlur stdDeviation="2"/>
<feColorMatrix type="matrix" values="0 0 0 0 0 0 0 0 0 0 0 0 0 0 0 0 0 0 0.25 0"/>
<feBlend mode="normal" in2="BackgroundImageFix" result="effect1_dropShadow"/>
<feBlend mode="normal" in="SourceGraphic" in2="effect1_dropShadow" result="shape"/>
</filter>
</defs>
</svg>
