<svg width="49" height="48" viewBox="0 0 49 48" fill="none" xmlns="http://www.w3.org/2000/svg">
<path d="M23.5574 17.3795C22.248 15.8903 20.5263 14.8228 18.6102 14.312C16.6941 13.8012 14.6696 13.87 12.7926 14.5099C10.9156 15.1497 9.27053 16.3317 8.06535 17.9065C6.86017 19.4813 6.14903 21.3781 6.02186 23.357C5.89469 25.336 6.35721 27.3082 7.35091 29.0243C8.34462 30.7404 9.82489 32.1232 11.6045 32.998C13.3842 33.8728 15.3833 34.2003 17.349 33.9389C19.3147 33.6776 21.1588 32.8392 22.6481 31.5298L21.0595 29.7231C19.9276 30.7183 18.526 31.3555 17.0319 31.5541C15.5379 31.7528 14.0184 31.5039 12.6658 30.839C11.3132 30.1741 10.1881 29.1231 9.43282 27.8187C8.67754 26.5144 8.32601 25.0154 8.42266 23.5113C8.51932 22.0072 9.05982 20.5655 9.97583 19.3686C10.8918 18.1717 12.1422 17.2732 13.5688 16.7869C14.9954 16.3006 16.5342 16.2483 17.9905 16.6365C19.4469 17.0248 20.7554 17.8362 21.7506 18.9681L28.1143 27.2613L30.0011 25.8247L23.5574 17.3795Z" fill="#32b1ca"/>
<path d="M24.4451 30.6205C25.7545 32.1097 27.4761 33.1772 29.3922 33.688C31.3083 34.1988 33.3329 34.13 35.2098 33.4901C37.0868 32.8503 38.7319 31.6683 39.9371 30.0935C41.1423 28.5187 41.8534 26.6219 41.9806 24.643C42.1077 22.664 41.6452 20.6918 40.6515 18.9757C39.6578 17.2596 38.1776 15.8768 36.3979 15.002C34.6183 14.1272 32.6192 13.7997 30.6535 14.0611C28.6877 14.3224 26.8436 15.1608 25.3544 16.4702L26.9429 18.2769C28.0748 17.2817 29.4764 16.6445 30.9705 16.4459C32.4646 16.2472 33.984 16.4961 35.3366 17.161C36.6893 17.8259 37.8143 18.8769 38.5696 20.1813C39.3249 21.4856 39.6764 22.9846 39.5798 24.4887C39.4831 25.9928 38.9426 27.4345 38.0266 28.6314C37.1106 29.8283 35.8602 30.7268 34.4336 31.2131C33.007 31.6994 31.4682 31.7517 30.0119 31.3635C28.5555 30.9752 27.247 30.1638 26.2518 29.0319L19.8882 20.7387L18.0013 22.1753L24.4451 30.6205Z" fill="#32b1ca"/>
<defs>
</defs>
</svg>
