<svg width="48" height="48" viewBox="0 0 48 48" fill="none" xmlns="http://www.w3.org/2000/svg">
<g filter="url(#filter0_d)">
<path d="M24 34C19.16 34 15.12 30.56 14.2 26L6 26L6 22L14.2 22C15.12 17.44 19.16 14 24 14C28.84 14 32.88 17.44 33.8 22L42 22L42 26L33.8 26C32.88 30.56 28.84 34 24 34ZM30 24C30 22.4087 29.3679 20.8826 28.2426 19.7574C27.1174 18.6321 25.5913 18 24 18C22.4087 18 20.8826 18.6321 19.7574 19.7574C18.6321 20.8826 18 22.4087 18 24C18 25.5913 18.6321 27.1174 19.7574 28.2426C20.8826 29.3679 22.4087 30 24 30C25.5913 30 27.1174 29.3679 28.2426 28.2426C29.3679 27.1174 30 25.5913 30 24Z" fill="#E5EFF5"/>
</g>
<defs>
<filter id="filter0_d" x="-4" y="-2" width="56" height="56" filterUnits="userSpaceOnUse" color-interpolation-filters="sRGB">
<feFlood flood-opacity="0" result="BackgroundImageFix"/>
<feColorMatrix in="SourceAlpha" type="matrix" values="0 0 0 0 0 0 0 0 0 0 0 0 0 0 0 0 0 0 127 0"/>
<feOffset dy="2"/>
<feGaussianBlur stdDeviation="2"/>
<feColorMatrix type="matrix" values="0 0 0 0 0 0 0 0 0 0 0 0 0 0 0 0 0 0 0.25 0"/>
<feBlend mode="normal" in2="BackgroundImageFix" result="effect1_dropShadow"/>
<feBlend mode="normal" in="SourceGraphic" in2="effect1_dropShadow" result="shape"/>
</filter>
</defs>
</svg>
