<svg fill="#08575E" xmlns="http://www.w3.org/2000/svg" viewBox="0 0 64 31" class="css-nm3w06"><path d="M0 .854h13.573c3.07 0 5.77.614 8.105 1.842 2.36 1.2 4.184 2.929 5.469 5.186 1.312 2.257 1.967 4.914 1.967 7.972 0 3.057-.655 5.714-1.967 7.97-1.285 2.258-3.108 4-5.469 5.23-2.334 1.2-5.036 1.8-8.105 1.8H0v-30zm13.18 22.114c1.994 0 3.58-.614 4.76-1.843 1.207-1.257 1.81-3.014 1.81-5.271 0-2.258-.603-4-1.81-5.23-1.18-1.256-2.767-1.885-4.76-1.885H9.285v14.229h3.895zM30.951 27.697v3.157h8.46v-13.2l5.98 10.5h4.091l5.98-10.972.08 13.672H64l-.079-30H56.29l-8.735 15.985L38.584.854h-7.633v3.043c.072.12.142.24.21.363 1.89 3.266 2.834 7.112 2.834 11.537 0 4.425-.945 8.27-2.833 11.538l-.21.362z"></path></svg>
