<svg width="48" height="49" viewBox="0 0 48 49" fill="none" xmlns="http://www.w3.org/2000/svg">
    <path d="M30.4202 22.0325C30.4202 25.5767 27.5471 28.4499 24.0028 28.4499C20.4586 28.4499 17.5854 25.5767 17.5854 22.0325C17.5854 18.4883 20.4586 15.6151 24.0028 15.6151C27.5471 15.6151 30.4202 18.4883 30.4202 22.0325Z" fill="#57ACDC"/>
    <path fill-rule="evenodd" clip-rule="evenodd" d="M24.0026 6.77185C32.4309 6.77185 39.2634 13.6044 39.2634 22.0327C39.2634 30.4611 34.0581 35.1929 24.0026 42.7719C13.947 35.1929 8.7417 30.4611 8.7417 22.0327C8.7417 13.6044 15.5742 6.77185 24.0026 6.77185ZM24.0033 10.5284C30.357 10.5284 35.5077 15.6791 35.5077 22.0328C35.5077 28.3865 30.357 33.5371 24.0033 33.5371C17.6496 33.5371 12.499 28.3865 12.499 22.0328C12.499 15.6791 17.6496 10.5284 24.0033 10.5284Z" fill="#CED1D6"/>
</svg>
