<svg width="49" height="48" viewBox="0 0 49 48" fill="none" xmlns="http://www.w3.org/2000/svg">
    <path d="M25.0024 16V24.5L32.0024 28.66L30.5624 31.08L22.0024 26V16H25.0024Z" fill="#D72323"/>
    <path d="M42.0024 20.24H28.4424L33.9224 14.6C28.4624 9.2 19.6224 9 14.1624 14.4C8.70245 19.82 8.70245 28.56 14.1624 34C19.6224 39.4 28.4624 39.4 33.9224 34C36.6424 31.3 38.0024 28.16 38.0024 24.2H42.0024C42.0024 28.16 40.2425 33.3 36.7225 36.78C29.7025 43.74 18.3024 43.74 11.2824 36.78C4.28245 29.84 4.22245 18.56 11.2424 11.62C18.2624 4.68 29.5224 4.68 36.5424 11.62L42.0024 6V20.24Z" fill="#CED1D6"/>
</svg>
