<svg width="49" height="49" viewBox="0 0 49 49" fill="none" xmlns="http://www.w3.org/2000/svg">
    <g clip-path="url(#clip0_518_22)">
        <path d="M34.4232 20.159L38.4987 8.13867H21.2435L25.305 20.1241C25.4875 20.1606 25.6674 20.2095 25.8433 20.2704L29.881 12.1058L33.9071 20.3189C34.0754 20.2544 34.2478 20.2009 34.4232 20.159Z" fill="#C63D14"/>
        <path d="M35.3937 26.7375C36.7886 26.7375 37.9233 25.6027 37.9233 24.2079C37.9233 22.8131 36.7886 21.6784 35.3937 21.6784C33.999 21.6784 32.8642 22.8131 32.8642 24.2079C32.8642 25.6027 33.999 26.7375 35.3937 26.7375Z" fill="#C63D14"/>
        <path d="M24.4906 21.6784C25.8853 21.6784 27.0201 22.8131 27.0201 24.2079C27.0201 25.6027 25.8853 26.7375 24.4906 26.7375C23.0959 26.7375 21.961 25.6027 21.961 24.2079C21.961 22.8131 23.0959 21.6784 24.4906 21.6784Z" fill="#C63D14"/>
        <path d="M16.0757 24.2319C16.0757 22.8371 14.941 21.7024 13.5461 21.7024C12.1514 21.7024 11.0166 22.8371 11.0166 24.2319C11.0166 25.6267 12.1514 26.7616 13.5461 26.7616C14.941 26.7616 16.0757 25.6267 16.0757 24.2319Z" fill="#C63D14"/>
        <path d="M22.9153 38.2762C23.6464 37.913 24.3864 37.5454 25.1354 37.1987C24.9039 36.4505 24.7792 35.6553 24.7792 34.8311C24.7792 30.6145 28.0414 27.1598 32.1797 26.8532C31.5982 26.148 31.2439 25.2488 31.2298 24.2688L28.6549 24.2315C28.6421 26.5171 26.7789 28.3723 24.4906 28.3723C24.2818 28.3723 24.0734 28.3566 23.867 28.3255C23.1886 29.3963 22.3636 30.3983 21.4035 31.304C19.9183 32.7051 18.2439 33.7437 16.4268 34.3908L16.0935 34.5094L15.779 34.3478C13.4805 33.1669 12.3853 30.6681 13.0816 28.3698C12.7124 28.3286 12.3504 28.2377 12.0054 28.0996C11.891 28.3395 11.7756 28.5788 11.6592 28.8177C10.9751 30.2229 10.2677 31.676 10.0061 33.2537C9.72379 34.9566 9.61187 38.0643 12.0353 39.7438C15.3437 42.0368 18.8525 40.2942 22.9153 38.2762Z" fill="#C63D14"/>
        <path d="M39.3506 34.5453H38.4935V32.2595C38.4935 31.6253 37.9792 31.1167 37.3506 31.1167H35.0649V30.2595C35.0649 29.8807 34.9144 29.5173 34.6465 29.2494C34.3786 28.9815 34.0152 28.831 33.6363 28.831C33.2574 28.831 32.8941 28.9815 32.6262 29.2494C32.3583 29.5173 32.2077 29.8807 32.2077 30.2595V31.1167H29.922C29.6189 31.1167 29.3282 31.2371 29.1139 31.4514C28.8996 31.6658 28.7792 31.9564 28.7792 32.2595V34.431H29.6363C30.4935 34.431 31.1792 35.1167 31.1792 35.9738C31.1792 36.831 30.4935 37.5167 29.6363 37.5167H28.7792V39.6881C28.7792 39.9912 28.8996 40.2819 29.1139 40.4962C29.3282 40.7106 29.6189 40.831 29.922 40.831H32.0935V39.9738C32.0935 39.1167 32.7792 38.431 33.6363 38.431C34.4935 38.431 35.1792 39.1167 35.1792 39.9738V40.831H37.3506C37.6537 40.831 37.9444 40.7106 38.1587 40.4962C38.3731 40.2819 38.4935 39.9912 38.4935 39.6881V37.4024H39.3506C39.7295 37.4024 40.0928 37.2519 40.3608 36.984C40.6287 36.7161 40.7792 36.3527 40.7792 35.9738C40.7792 35.595 40.6287 35.2316 40.3608 34.9637C40.0928 34.6958 39.7295 34.5453 39.3506 34.5453V34.5453Z" fill="#7EB77F"/>
    </g>
    <defs>
        <clipPath id="clip0_518_22">
            <rect width="32.5584" height="36" fill="white" transform="translate(8.22083 6.5)"/>
        </clipPath>
    </defs>
</svg>
