<svg width="48" height="48" viewBox="0 0 48 48" fill="none" xmlns="http://www.w3.org/2000/svg">
    <path d="M30.4202 21.2607C30.4202 24.8049 27.5471 27.678 24.0028 27.678C20.4586 27.678 17.5854 24.8049 17.5854 21.2607C17.5854 17.7164 20.4586 14.8433 24.0028 14.8433C27.5471 14.8433 30.4202 17.7164 30.4202 21.2607Z" fill="#7EB77F"/>
    <path fill-rule="evenodd" clip-rule="evenodd" d="M24.0026 6C32.4309 6 39.2634 12.8325 39.2634 21.2609C39.2634 29.6892 34.0581 34.4211 24.0026 42C13.947 34.4211 8.7417 29.6892 8.7417 21.2609C8.7417 12.8325 15.5742 6 24.0026 6ZM24.0033 9.75659C30.357 9.75659 35.5077 14.9073 35.5077 21.2609C35.5077 27.6146 30.357 32.7653 24.0033 32.7653C17.6496 32.7653 12.499 27.6146 12.499 21.2609C12.499 14.9073 17.6496 9.75659 24.0033 9.75659Z" fill="#CED1D6"/>
</svg>
