<svg width="40" height="40" viewBox="0 0 40 40" fill="none" xmlns="http://www.w3.org/2000/svg">
    <g clip-path="url(#clip0_501_4071)">
        <path fill-rule="evenodd" clip-rule="evenodd" d="M5.10832 28.8919C4.98489 28.8948 4.86293 28.8654 4.75509 28.8068C4.64724 28.7482 4.55745 28.6625 4.49501 28.5586C4.43257 28.4548 4.39976 28.3365 4.4 28.2162C4.40023 28.0958 4.43349 27.9777 4.49632 27.874L5.61232 25.924C5.61232 25.924 5.61232 25.9591 7.30032 22.9795C8.58032 20.8657 9.78032 18.202 9.78032 15.082V10.8739C9.78032 6.56444 13.3803 0.499939 20.4243 0.499939C24.3763 0.499939 27.2243 2.25104 28.9803 4.60274C29.0307 4.6012 29.0806 4.61335 29.1243 4.63784L32.9803 5.68694C33.1513 5.73211 33.3073 5.81994 33.4329 5.94177C33.5585 6.06359 33.6494 6.21522 33.6967 6.38171C33.7439 6.5482 33.7458 6.72382 33.7023 6.89126C33.6587 7.05871 33.5712 7.21221 33.4483 7.33664L31.0763 9.67664C31.1123 10.0978 31.1483 10.48 31.1483 10.9012V15.0742C31.1483 17.9836 32.1563 20.4718 33.2683 22.4842L34.7803 25.7095C34.7803 25.7095 34.7803 25.6744 35.8203 27.8818C35.872 27.9871 35.8954 28.1036 35.8881 28.2201C35.8808 28.3367 35.8431 28.4495 35.7786 28.5478C35.7142 28.6462 35.625 28.727 35.5196 28.7824C35.4142 28.8378 35.2961 28.8661 35.1763 28.8646L5.10832 28.8919ZM11.9403 24.6799H12.8363C14.7803 24.6799 27.2363 22.9288 27.2363 11.6773C27.2363 8.69774 24.9723 5.01614 20.4083 5.01614C15.8443 5.01614 13.5763 8.91614 13.5763 11.6773V14.3761C13.5763 16.3729 13.5403 18.4789 12.6083 20.8969C12.2483 21.7705 11.7083 22.8469 11.3123 23.6269C11.2538 23.7347 11.2245 23.8551 11.2269 23.977C11.2294 24.0988 11.2637 24.218 11.3265 24.3234C11.3894 24.4288 11.4787 24.5168 11.5861 24.5792C11.6935 24.6415 11.8154 24.6762 11.9403 24.6799Z" fill="#5225C1"/>
        <path fill-rule="evenodd" clip-rule="evenodd" d="M11.5404 33.0962C11.4343 33.0935 11.3293 33.1167 11.2347 33.1636C11.1402 33.2106 11.0593 33.2799 10.9992 33.3652C10.9392 33.4504 10.902 33.549 10.891 33.6519C10.88 33.7548 10.8956 33.8587 10.9364 33.9542V33.9932C11.4445 35.0817 12.1723 36.0592 13.0764 36.8675C14.0154 37.7117 15.111 38.3735 16.3044 38.8175C18.76 39.7276 21.4727 39.7276 23.9284 38.8175C25.1225 38.3726 26.2192 37.7109 27.1604 36.8675C28.0631 36.058 28.7907 35.0808 29.3004 33.9932V33.9542C29.3422 33.8587 29.3587 33.7545 29.3482 33.6512C29.3377 33.5479 29.3006 33.4489 29.2403 33.3633C29.18 33.2777 29.0986 33.2083 29.0035 33.1616C28.9084 33.115 28.8028 33.0924 28.6964 33.0962H25.7124C25.5875 33.1001 25.4653 33.1325 25.3555 33.1907C25.2458 33.249 25.1515 33.3315 25.0804 33.4316C24.8562 33.7409 24.5987 34.0259 24.3124 34.2818C23.7555 34.7867 23.1053 35.1837 22.3964 35.4518C20.9407 35.9925 19.332 35.9925 17.8764 35.4518C17.1674 35.1837 16.5172 34.7867 15.9604 34.2818C15.6751 34.0248 15.4178 33.7399 15.1924 33.4316C15.1248 33.3325 15.0341 33.2504 14.9277 33.1921C14.8213 33.1338 14.7023 33.101 14.5804 33.0962H11.5404Z" fill="#5225C1"/>
    </g>
    <defs>
        <clipPath id="clip0_501_4071">
            <rect width="40" height="39" fill="white" transform="translate(0 0.499756)"/>
        </clipPath>
    </defs>
</svg>
