<svg width="48" height="48" viewBox="0 0 48 48" fill="none" xmlns="http://www.w3.org/2000/svg">
<path d="M19.5214 38.9631C18.5985 38.1377 17.5454 35.9983 17.2713 35.0783C17.0771 34.426 16.7921 32.9531 16.9259 31.0653C17.0605 29.1781 18.8429 26.581 18.8429 26.581L18.9825 26.3988L18.9857 26.3753L18.9338 26.3757C18.9338 26.3757 18.8134 25.8477 18.4593 25.492C18.1051 25.1357 12.6351 21.74 12.6351 21.74C12.6351 21.74 15.5992 7.57606 17.393 7.57016C19.1869 7.56423 19.8907 8.58455 20.6587 8.90148C21.4274 9.21757 22.9274 11.0667 22.9274 11.0667C22.9274 11.0667 24.1257 12.8213 24.4887 13.5165C24.8518 14.2123 25.0664 14.8222 25.3912 15.844C25.7158 16.8652 25.7045 18.114 25.7045 18.114C25.7045 18.114 25.6548 18.8625 25.6227 19.1129C25.5915 19.3639 25.4424 19.9297 25.3592 20.1626C25.2781 20.3885 25.1542 20.677 25.147 20.695L25.1809 20.6474L25.4517 20.2399C25.4517 20.2399 26.1282 19.1846 26.5412 18.0595C26.9537 16.9346 27.1203 14.521 27.1203 14.521C27.1203 14.521 27.2431 14.7597 27.4942 15.3235C27.7459 15.8871 27.9759 18.1262 27.9759 18.1262L28.2764 17.148L29.4478 14.1005C29.4478 14.1005 30.8984 11.2988 31.9064 10.0311C32.9146 8.764 33.6686 8.23713 34.4336 8.24035C35.1994 8.2434 35.1371 9.04969 35.3864 10.2627C35.6348 11.4751 35.5779 13.1401 35.2362 14.6381C34.895 16.1354 33.5717 18.9729 33.5717 18.9729L32.6539 20.7555L32.1941 21.5975C32.1941 21.5975 32.1809 21.5927 32.1692 21.5882C32.218 21.6085 32.3763 21.6743 32.8021 21.8504C33.6962 22.2199 36.2184 24.8221 36.2184 24.8221L37.1544 26.2109L37.5948 26.3473L39.5641 28.3191L39.862 28.7067L41.5557 31.706C41.8823 32.542 41.7577 33.6719 41.1522 34.9292C40.5468 36.1865 38.8621 36.5433 38.8621 36.5433C38.8621 36.5433 38.5155 37.0593 37.85 37.6929C37.1846 38.3273 35.6821 39.0425 35.6821 39.0425L35.6041 39.0602L34.0285 40.1898C33.1181 40.6215 32.3245 41.1766 29.0795 41.1726C25.4276 42.0047 22.5501 41.3482 19.5214 38.9631Z" fill="#939393"/>
<path d="M37.1618 36.2993C37.1618 36.2993 37.2728 36.4719 38.0204 36.5474C38.768 36.6228 38.7819 36.5787 38.7819 36.5787C38.7819 36.5787 37.6599 37.9162 36.8233 38.3936C35.9866 38.8709 35.5043 39.0764 35.5043 39.0764C35.5043 39.0764 36.2369 38.1722 36.3975 37.8729C36.5579 37.5734 37.0982 36.4845 37.124 36.3284L37.1618 36.2993Z" fill="#DE7495"/>
<path d="M36.9013 36.9388C36.9013 36.9388 37.6839 36.9584 37.9482 36.9051C37.9482 36.9051 37.2457 38.0311 36.0257 38.5786" fill="#EE8EA8"/>
<path d="M32.9869 36.626L32.2208 39.4355C32.2208 39.4355 31.0723 39.3081 29.8678 38.6952C28.6632 38.0822 27.7347 36.8534 27.7347 36.8534C26.5833 35.2119 25.0599 32.8535 25.5381 32.3958C25.5654 32.3696 25.5999 32.3491 25.6427 32.3356C26.22 32.911 26.9436 33.5502 27.8279 34.1768C28.807 34.8705 29.739 35.3759 30.5357 35.7443L32.9869 36.626Z" fill="#DF7495"/>
<path d="M32.8609 37.1194C32.4543 37.0617 31.9082 36.9577 31.2835 36.7575C30.3251 36.4504 29.422 35.9842 28.5905 35.42C28.1752 35.1382 27.7765 34.8316 27.3961 34.5043C27.2179 34.3509 27.0439 34.1925 26.8744 34.0295C26.7311 33.8919 26.3491 33.6237 26.2941 33.4346C26.5235 34.222 27.2568 36.3399 29.3556 37.8643C30.4379 38.6504 31.5091 39.0069 32.2381 39.1794L32.8609 37.1194Z" fill="#EE8EA8"/>
<path d="M40.0417 32.9234C40.0417 32.9234 41.116 32.3953 41.419 31.688C41.7221 30.9807 41.7766 30.1867 41.5409 29.8411C41.3052 29.4955 40.4312 28.9403 40.1684 28.8807C39.9057 28.8211 38.6479 28.7835 38.6479 28.7835C38.6479 28.7835 38.1213 28.8693 38.1091 28.8755C38.0969 28.8817 37.3675 29.1708 37.351 29.7274C37.3345 30.2842 37.353 30.5154 37.5707 30.7218C37.7884 30.9282 39.2448 32.2722 39.2448 32.2722C39.2448 32.2722 39.9223 32.7288 40.0417 32.9234Z" fill="#D97898"/>
<path d="M39.9999 32.8689C39.9999 32.8689 41.5512 31.3687 40.7425 29.8964C39.9337 28.4242 38.7325 28.625 38.2799 28.7556C37.8272 28.8859 37.1067 28.9591 37.39 29.923C37.6733 30.887 38.1162 31.4323 38.4873 31.7027C38.8583 31.9731 39.9999 32.8689 39.9999 32.8689Z" fill="#EE8EA8"/>
<path d="M40.0095 32.7122C40.0095 32.7122 40.0394 30.7666 39.4509 29.7813C38.8622 28.7959 38.0902 28.9627 37.7348 29.2803C37.3794 29.598 37.5893 30.6787 38.5624 31.3944C39.5355 32.1102 40.0095 32.7122 40.0095 32.7122Z" fill="#FFB0B4"/>
<path d="M32.3571 37.4772C32.2811 37.8662 32.2052 38.2551 32.1293 38.6441C31.4924 38.4534 30.6844 38.1372 29.8358 37.5965C28.3567 36.6541 27.4728 35.4874 27.0022 34.7473C27.6104 35.3426 28.5889 36.1527 29.9739 36.7642C30.8733 37.1613 31.7 37.3669 32.3571 37.4772Z" fill="#F7AAB7"/>
<path d="M36.6683 37.4871C36.6683 37.4871 37.0911 37.3805 37.2673 37.255C37.2673 37.255 36.965 37.9656 36.1611 38.3467" fill="#F7AAB7"/>
<path d="M37.142 36.3144C37.142 36.3144 36.4869 37.9927 35.4138 39.0358C34.341 40.079 34.2035 40.1649 34.2035 40.1649L33.3486 39.5884L32.2415 39.7929L32.5225 38.4796L33.0168 36.5444C33.0168 36.5444 35.5042 37.0357 37.142 36.3144Z" fill="#F9FBFB"/>
<path d="M37.9375 27.6138C37.9375 27.6138 37.4318 26.473 37.8367 25.8529C38.2415 25.2327 38.8897 25.3217 39.2414 25.3872C39.5931 25.4527 40.3645 26.2417 40.3072 27.2286C40.2499 28.2156 39.2329 28.4655 38.8131 28.2608C38.3933 28.0561 37.9375 27.6138 37.9375 27.6138Z" fill="#F9FBFB"/>
<path d="M36.1763 26.7138C36.1763 26.7138 36.8854 27.3896 36.5796 28.3239C36.2736 29.2582 35.5152 29.8042 34.943 29.3703C34.3708 28.9364 33.9514 28.6133 33.8722 27.6665C33.793 26.7198 34.1651 26.1162 34.1891 26.1016C34.2131 26.0871 35.2375 25.5897 36.1763 26.7138Z" fill="#F9FBFB"/>
<path d="M35.2666 29.5513C35.2666 29.5513 34.0053 29.8477 33.3656 28.8376C32.7258 27.8275 32.9105 26.9207 33.5719 26.3878C34.2332 25.8548 34.1775 26.0495 34.1775 26.0495C34.1775 26.0495 33.7692 27.4532 34.1602 28.4108C34.5514 29.3684 35.2666 29.5513 35.2666 29.5513Z" fill="#CCCCCC"/>
<path d="M32.5822 26.2199C32.5822 26.2199 31.5633 27.2303 30.0524 26.9806C28.5415 26.731 27.1753 25.4381 27.8276 24.0472C28.48 22.6561 29.5547 22.2201 30.5513 22.2798C31.5479 22.3394 32.55 22.9029 32.55 22.9029C32.55 22.9029 32.7295 21.8927 34.035 21.6907C35.3406 21.4889 36.2801 23.0359 36.2866 23.9628C36.293 24.8897 35.9269 25.5602 34.9624 25.8209C33.9979 26.0816 33.2592 25.1167 33.2592 25.1167L32.5822 26.2199Z" fill="#F9FBFB"/>
<g opacity="0.470001">
<g opacity="0.470001">
<path opacity="0.470001" d="M29.7177 21.3773C29.7177 21.3773 31.0156 21.0816 32.4761 18.2641C33.9365 15.4465 33.8941 13.4629 33.8941 13.4629C33.8941 13.4629 32.6453 16.9695 28.1084 19.5869C28.1084 19.5869 28.4004 18.592 27.8639 17.076C27.8639 17.076 28.0902 19.4272 27.0918 20.6377C27.0918 20.6377 28.6537 19.8631 29.5637 19.5829C30.4738 19.3028 31.2255 18.7674 31.2255 18.7674C31.2255 18.7674 30.1648 20.3834 29.3599 20.8854C28.555 21.3874 28.5531 21.5789 28.5531 21.5789L29.6638 21.3805L29.7177 21.3773Z" fill="black"/>
</g>
</g>
<g opacity="0.470001">
<g opacity="0.470001">
<path opacity="0.470001" d="M33.1677 26.7813C32.8454 27.4384 32.7553 28.2276 33.0213 28.9094C33.325 29.6879 34.0976 30.2209 34.9418 30.1529C35.7221 30.0901 36.7036 29.5471 36.9814 28.7766C37.1804 28.2245 37.0073 27.6121 36.7935 27.0656C36.778 27.026 36.7621 26.9828 36.7743 26.9421C36.7866 26.9016 36.8236 26.8742 36.8601 26.8527C36.9994 26.7705 37.1637 26.7314 37.3251 26.7421C37.1617 27.3137 37.411 27.978 37.91 28.3012C38.4696 28.6635 39.1986 28.5847 39.841 28.763L39.4924 28.2262C39.1432 28.3724 38.7238 28.2995 38.4133 28.0829C38.1027 27.8663 37.896 27.5212 37.7992 27.1551C37.7053 26.8 37.7461 26.3278 37.3334 26.2693C36.9404 26.2136 36.4535 26.4427 36.1584 26.6821C36.61 27.187 36.7338 27.9608 36.4622 28.5814C36.1907 29.202 35.5382 29.6362 34.861 29.6471C34.1836 29.6581 33.5176 29.245 33.2262 28.6335C32.955 28.0644 33.0047 27.392 33.1677 26.7813Z" fill="black"/>
</g>
</g>
<g opacity="0.470001">
<g opacity="0.470001">
<path opacity="0.470001" d="M41.2218 32.0094C41.2218 32.0094 41.5205 36.1699 37.2569 36.3061L37.1996 36.3332C37.1996 36.3332 37.3734 36.5635 38.1604 36.5608C38.9474 36.5581 40.1799 35.9159 40.4831 35.6088C40.7863 35.3017 41.4491 34.0555 41.5714 33.5437C41.6937 33.032 41.7296 31.8921 41.5363 31.6631L41.2218 32.0094Z" fill="black"/>
</g>
</g>
<g opacity="0.470001">
<g opacity="0.470001">
<path opacity="0.470001" d="M26.3335 30.0938C26.3335 30.0938 26.0656 32.1937 26.8155 33.0877C27.5653 33.9817 27.5932 33.9845 27.5653 33.9817C27.5374 33.979 25.615 32.3327 25.615 32.3327L25.161 32.9367L25.7953 34.203C25.7953 34.203 25.2388 33.638 22.8574 33.9713C22.8574 33.9713 24.646 33.4728 25.3016 32.5953C25.9572 31.7177 26.1604 30.652 26.3335 30.0938Z" fill="black"/>
</g>
</g>
<path d="M21.3267 24.2243C21.3267 24.2243 20.0291 23.6121 19.6262 21.7243C19.2233 19.8365 21.2241 17.5922 21.2241 17.5922C21.2241 17.5922 22.3409 15.6038 21.907 13.8186C21.4729 12.0335 21.1111 10.8053 19.866 9.35519C18.6208 7.90505 17.3172 7.39657 16.0204 7.33709C14.7235 7.27761 11.0998 7.61184 8.98627 10.6191C6.87277 13.6264 6.55913 17.343 6.65363 18.5366C6.74807 19.7302 7.16819 21.8734 8.27422 23.4918C9.38011 25.1102 10.6481 26.2411 11.9522 26.572L14.635 23.3667L13.8541 26.8895C13.8541 26.8895 19.6181 27.7605 21.3267 24.2243Z" fill="#DF7495"/>
<path d="M11.7492 25.4806C11.7492 25.4806 7.49585 23.1913 7.85857 17.5931C8.22131 11.9949 11.3592 8.03056 15.0918 8.35418C18.8243 8.6778 19.9835 11.6084 19.9835 11.6084C19.9835 11.6084 14.3633 9.83079 12.3785 18.2561C12.3785 18.2561 14.5442 13.6805 17.8012 13.8941C21.0582 14.1076 19.7507 16.0985 19.3536 17.1719C18.9565 18.2454 17.6853 20.815 18.0985 22.2089C18.5116 23.6029 19.7359 24.6619 19.7359 24.6619C19.7359 24.6619 18.5596 26.0904 16.2497 26.1389C16.2497 26.1389 14.8681 24.2693 16.4051 19.0315C16.4051 19.0315 12.3303 21.48 11.7492 25.4806" fill="#EE8EA8"/>
<g opacity="0.399994">
<g opacity="0.399994">
<path opacity="0.399994" d="M19.0018 14.7268C19.0018 14.7268 13.8931 16.2731 11.7679 22.7644C11.7679 22.7644 11.5876 13.9041 19.0018 14.7268Z" fill="white"/>
</g>
</g>
<g opacity="0.399994">
<g opacity="0.399994">
<path opacity="0.399994" d="M11.5015 22.7156C11.5015 22.7156 10.2389 13.4193 17.8095 10.5748C17.8095 10.5748 14.0861 7.65504 10.6568 11.6584C7.22749 15.6618 9.99755 22.2664 11.5015 22.7156Z" fill="white"/>
</g>
</g>
<g opacity="0.470001">
<g opacity="0.470001">
<path opacity="0.470001" d="M21.1229 24.7557C21.2266 24.8267 18.3955 27.7634 17.7982 30.856C17.4053 32.8897 17.81 35.8637 21.2682 40.0134C21.2682 40.0134 18.8882 38.8355 17.8859 36.6337C16.8837 34.4319 16.7415 33.4085 16.828 31.9507C16.9145 30.493 17.5234 28.7911 17.8334 28.1743C18.1434 27.5576 18.7172 26.6008 19.1014 26.2198C19.1014 26.2198 19.1589 26.2101 19.276 26.1621C19.6073 26.0263 19.8078 25.8746 19.8078 25.8745C20.2198 25.584 21.0664 24.717 21.1229 24.7557Z" fill="black"/>
</g>
</g>
<g opacity="0.350006">
<g opacity="0.350006">
<path opacity="0.350006" d="M35.0263 8.7816C35.0263 8.7816 32.135 10.5326 30.3112 14.3521C28.4874 18.1717 27.6331 19.6952 27.6331 19.6952L28.0396 17.8141C28.0396 17.8141 28.3877 16.6153 28.58 16.1414C28.7724 15.6676 30.1485 12.7191 30.1485 12.7191C30.1485 12.7191 31.3936 10.0052 32.5599 9.13197C33.7262 8.25864 33.9482 7.91461 34.3917 8.0934C34.8352 8.27225 35.0263 8.7816 35.0263 8.7816Z" fill="white"/>
</g>
</g>
<g opacity="0.350006">
<g opacity="0.350006">
<path opacity="0.350006" d="M21.251 9.53138C21.251 9.53138 24.0544 13.0566 24.0938 16.1058C24.1333 19.1549 23.6368 20.4513 23.7718 21.4035C23.9069 22.3557 24.2725 22.6819 25.1174 22.6351C25.9623 22.5882 30.4859 21.2707 32.9844 21.9302C32.9844 21.9302 32.0683 21.2652 30.5212 21.3856C28.9741 21.506 28.709 21.5209 28.709 21.5209L27.4007 21.951C27.4007 21.951 28.8315 20.2415 30.2553 19.3801C30.2553 19.3801 28.0358 20.3045 27.0409 20.7314C27.0409 20.7314 27.9058 19.2146 27.8221 17.7683C27.7383 16.3221 27.2467 15.1235 27.2467 15.1235C27.2467 15.1235 27.9839 18.6781 26.6324 20.2966C25.281 21.9151 24.3886 22.073 24.3886 22.073C24.3886 22.073 25.3287 20.7666 25.5792 19.1896C25.8297 17.6125 25.5767 16.223 25.1879 15.1556C24.7991 14.0883 23.8091 12.0203 23.0598 11.2081C22.3104 10.3959 21.251 9.53138 21.251 9.53138Z" fill="white"/>
</g>
</g>
<g opacity="0.350006">
<g opacity="0.350006">
<path opacity="0.350006" d="M26.1244 28.8131C26.1244 28.8131 26.8708 31.2097 25.1212 32.7188C23.3717 34.2278 21.8784 33.9856 21.8784 33.9856C21.8784 33.9856 25.678 32.4463 26.1244 28.8131Z" fill="white"/>
</g>
</g>
<path d="M40.0398 32.9236C40.004 32.8638 39.9522 32.8155 39.9028 32.7671C39.8523 32.7191 39.8002 32.6732 39.7474 32.6281C39.6413 32.5388 39.5331 32.4524 39.4255 32.3657C39.21 32.1927 38.9931 32.0228 38.785 31.8439C38.575 31.6675 38.3711 31.4851 38.1828 31.2906C37.9942 31.097 37.8181 30.8924 37.6821 30.6704C37.6144 30.5595 37.5602 30.4436 37.5226 30.3266C37.4835 30.2099 37.4671 30.091 37.4778 29.9772C37.5051 29.7297 37.5809 29.4778 37.7201 29.2861C37.8634 29.0971 38.0658 28.9595 38.3048 28.891L38.3948 28.8663C38.4248 28.8582 38.4566 28.8544 38.4873 28.848C38.5486 28.8344 38.6131 28.8304 38.6763 28.8226C38.8046 28.814 38.9343 28.8105 39.0656 28.8194C39.1307 28.8214 39.1975 28.8283 39.262 28.8339C39.3256 28.8401 39.3904 28.8507 39.455 28.8615C39.5843 28.8847 39.7135 28.9151 39.8408 28.9516C40.0957 29.0243 40.3434 29.1223 40.575 29.2446C40.8057 29.3674 41.0223 29.5169 41.195 29.7038C41.3664 29.8905 41.4981 30.1106 41.5579 30.3555C41.5877 30.4777 41.601 30.6045 41.6011 30.7328C41.5979 30.8623 41.5829 30.9914 41.5569 31.119C41.5021 31.3739 41.3921 31.6181 41.2446 31.8405C41.0977 32.0641 40.9129 32.2648 40.7093 32.4459C40.6073 32.5365 40.5 32.6219 40.388 32.7013C40.2766 32.7817 40.1613 32.8576 40.0398 32.9236ZM40.0398 32.9236C40.2974 32.8218 40.5417 32.6842 40.769 32.5208C40.9964 32.3574 41.2046 32.1635 41.3822 31.9399C41.732 31.4919 41.9375 30.894 41.8217 30.2971C41.7658 30.0005 41.6175 29.7235 41.4206 29.5006C41.2242 29.2753 40.984 29.1003 40.7325 28.9567C40.4799 28.8132 40.2104 28.7087 39.9359 28.6259C39.7982 28.585 39.6587 28.5507 39.5166 28.5237C39.4451 28.5111 39.3738 28.4987 39.3 28.4907C39.2271 28.4835 39.1565 28.4757 39.0837 28.4726C38.795 28.458 38.4969 28.477 38.2051 28.5663C37.9149 28.6523 37.6336 28.8364 37.4521 29.0952L37.3918 29.1958C37.3722 29.2296 37.3504 29.2624 37.3373 29.2986L37.2924 29.405C37.2852 29.4228 37.2772 29.4404 37.2708 29.4583L37.2555 29.513C37.21 29.6602 37.1876 29.8016 37.174 29.9565C37.1643 30.1179 37.1928 30.2778 37.2466 30.4206C37.3004 30.5638 37.3717 30.696 37.4538 30.8169C37.6198 31.0575 37.815 31.2668 38.0248 31.4547C38.2344 31.6431 38.4545 31.8154 38.6799 31.9784C38.9065 32.1399 39.1368 32.294 39.3691 32.4439C39.4854 32.5187 39.6013 32.5934 39.7158 32.6701C39.7735 32.7078 39.8305 32.7465 39.8858 32.7872C39.9404 32.8286 39.9969 32.8692 40.0398 32.9236Z" fill="black"/>
<path d="M33.2217 22.0264C32.7596 21.696 32.2298 21.4526 31.6714 21.3055C31.1134 21.1544 30.526 21.1074 29.949 21.1514C29.3716 21.1945 28.803 21.3227 28.2665 21.524C27.7287 21.7221 27.2181 21.983 26.747 22.2999C27.2838 22.112 27.8115 21.9271 28.3479 21.7828C28.8842 21.6394 29.4278 21.5385 29.9747 21.4979C30.1114 21.4882 30.2483 21.4859 30.3852 21.4785C30.522 21.4782 30.6589 21.4823 30.796 21.4833C30.9323 21.4945 31.0695 21.5005 31.206 21.5143L31.4102 21.5403L31.5128 21.552C31.5469 21.5566 31.5805 21.5639 31.6144 21.5696C32.1577 21.6616 32.6912 21.8228 33.2217 22.0264Z" fill="black"/>
<path d="M37.2153 26.1966C37.1866 26.036 37.1327 25.8994 37.0706 25.7696C37.0393 25.7046 37.0048 25.6437 36.9682 25.582C36.9315 25.5192 36.8915 25.4588 36.8503 25.3992C36.7668 25.2807 36.6733 25.1692 36.5691 25.0659C36.4637 24.9634 36.35 24.8674 36.2088 24.7933C36.2339 24.954 36.2863 25.093 36.3472 25.2255C36.4092 25.3573 36.4819 25.4807 36.5647 25.5972C36.6066 25.6551 36.6498 25.712 36.6962 25.7669C36.7436 25.8221 36.7951 25.8765 36.8488 25.9277C36.9571 26.0299 37.0736 26.1252 37.2153 26.1966Z" fill="black"/>
<path d="M40.9297 29.2393C40.8348 29.1094 40.7298 29.007 40.6201 28.9119C40.51 28.8179 40.395 28.7338 40.2749 28.6575C40.1551 28.5806 40.0293 28.5133 39.8972 28.4536C39.7638 28.3956 39.6259 28.3435 39.4663 28.3177C39.5408 28.4607 39.6379 28.5758 39.7435 28.6795C39.8493 28.783 39.9656 28.8725 40.0889 28.951C40.2125 29.029 40.3437 29.0952 40.4825 29.147C40.622 29.1973 40.7681 29.2371 40.9297 29.2393Z" fill="black"/>
<path d="M32.1617 21.5576C32.7616 20.6154 33.2916 19.629 33.7788 18.6218C34.2603 17.612 34.6925 16.5751 35.0296 15.5024C35.1987 14.9665 35.3446 14.4218 35.4513 13.8671C35.5584 13.3128 35.6305 12.7486 35.6404 12.178C35.6437 12.0355 35.6369 11.8923 35.6343 11.7494L35.6102 11.3296C35.5916 11.05 35.5728 10.7704 35.5462 10.4903C35.5199 10.2103 35.4908 9.93011 35.4481 9.64945C35.4053 9.36881 35.3535 9.08752 35.2692 8.80621C35.2226 8.66582 35.173 8.52512 35.0961 8.38729C35.0192 8.25139 34.9161 8.11132 34.7587 8.01479C34.7203 7.99083 34.6764 7.97367 34.6347 7.95471C34.5907 7.94298 34.5461 7.92755 34.5018 7.92176C34.4125 7.90901 34.3244 7.91014 34.2427 7.92296C34.0787 7.94794 33.9325 8.00228 33.7982 8.06603C33.5289 8.19413 33.2911 8.35291 33.0581 8.51479L32.8856 8.63822C32.8282 8.6809 32.7703 8.72802 32.7127 8.7728C32.6011 8.86644 32.4936 8.96389 32.3934 9.06685C32.1922 9.27191 32.004 9.48655 31.8306 9.71078C31.6559 9.93403 31.4897 10.1627 31.3325 10.3966C31.1731 10.6293 31.0237 10.8677 30.8767 11.1074C30.7328 11.3488 30.5921 11.5919 30.4573 11.8379C29.916 12.821 29.4421 13.8376 29.0219 14.8748C28.6077 15.9137 28.2358 16.9725 27.9789 18.06C28.31 16.9936 28.7228 15.9571 29.179 14.9417C29.4061 14.4336 29.6454 13.9312 29.8987 13.4362C30.1519 12.9412 30.4137 12.4509 30.6933 11.9716C30.9726 11.4921 31.2675 11.0224 31.5832 10.5694C31.8994 10.1176 32.2395 9.68057 32.6253 9.30049C32.7212 9.20485 32.822 9.11642 32.9241 9.03078C32.9769 8.99037 33.0273 8.9493 33.0819 8.90912L33.2503 8.78983C33.4756 8.6344 33.7055 8.48441 33.9412 8.37403C34.1752 8.26409 34.4242 8.20543 34.5812 8.30911C34.6631 8.35939 34.7348 8.44865 34.7936 8.55467C34.8529 8.66108 34.896 8.78502 34.9374 8.90899C35.0146 9.16204 35.0663 9.43066 35.1087 9.70111C35.1513 9.97195 35.1812 10.2469 35.2085 10.5222C35.236 10.7975 35.256 11.0746 35.2757 11.3516L35.3016 11.7673C35.3038 11.9033 35.3138 12.039 35.3122 12.1754C35.3072 13.2692 35.0726 14.3608 34.7709 15.4242C34.4607 16.4882 34.0671 17.5304 33.6244 18.5514C33.1825 19.5733 32.6953 20.5771 32.1617 21.5576Z" fill="black"/>
<path d="M28.4606 21.5728C28.7757 21.4413 29.0648 21.264 29.3413 21.0706C29.6166 20.8752 29.8768 20.6583 30.12 20.4227C30.3612 20.185 30.5843 19.927 30.7807 19.649C30.9718 19.3672 31.1379 19.0642 31.2368 18.7376C31.011 18.9939 30.7935 19.2377 30.5686 19.4766C30.3407 19.7127 30.1101 19.9437 29.877 20.1744L29.1675 20.8608C28.9302 21.0917 28.6927 21.3239 28.4606 21.5728Z" fill="black"/>
<path d="M32.2633 17.8116C31.9107 18.1825 31.5025 18.4933 31.0743 18.7638C30.6449 19.0333 30.1881 19.2562 29.7127 19.4224C29.4779 19.5054 29.2276 19.578 28.9851 19.6648C28.7416 19.7495 28.5016 19.8455 28.2634 19.9464C28.0254 20.0482 27.7911 20.1601 27.5612 20.2825C27.4458 20.343 27.333 20.4092 27.2213 20.4781C27.1656 20.5133 27.1102 20.5487 27.0554 20.5862C26.9995 20.6251 26.9486 20.6601 26.8888 20.7087L27.1204 20.9016C27.2652 20.6478 27.3849 20.3952 27.4969 20.133C27.6076 19.8717 27.7047 19.6044 27.7864 19.3318C27.8686 19.0593 27.9313 18.7805 27.9821 18.499L28.0121 18.2861L28.0269 18.1796L28.0358 18.0722L28.0533 17.8573L28.0575 17.6409L28.0594 17.5327L28.0549 17.4252L28.0442 17.2103L28.0224 16.9966L28.0111 16.8898L27.9949 16.7839C27.9565 16.5004 27.8925 16.2219 27.8192 15.9469C27.7452 15.6718 27.654 15.402 27.5487 15.1379C27.4414 14.8729 27.3252 14.6186 27.1804 14.3621L26.8837 13.8364L26.8876 14.4422C26.8909 14.9728 26.8567 15.5138 26.8049 16.0471C26.7481 16.5802 26.6652 17.1147 26.5346 17.6304C26.4629 17.887 26.3815 18.1425 26.2817 18.392C26.1861 18.6432 26.0795 18.8909 25.9636 19.1346C25.8483 19.3787 25.7277 19.6208 25.5982 19.8585C25.4676 20.0953 25.3389 20.3345 25.1898 20.5611C25.3573 20.3473 25.51 20.1218 25.6568 19.893C25.803 19.6637 25.9443 19.4306 26.0738 19.1907C26.337 18.7135 26.5676 18.2151 26.7367 17.6894C26.9003 17.1606 26.9988 16.6225 27.0757 16.0798C27.15 15.5361 27.1937 14.9935 27.2016 14.4393L26.9087 14.5195C27.0329 14.7505 27.1445 15.0057 27.2405 15.2588C27.3377 15.5131 27.4247 15.7717 27.4931 16.035C27.5612 16.298 27.6206 16.5637 27.655 16.8324L27.6697 16.9329L27.6796 17.0338L27.6989 17.2357L27.7076 17.4379L27.7127 17.539L27.7113 17.6395L27.709 17.8407L27.6938 18.0419L27.6863 18.1427L27.673 18.243L27.6461 18.4438C27.5996 18.7105 27.5421 18.9759 27.4652 19.2372C27.3874 19.4979 27.2998 19.7565 27.1986 20.0099C27.0974 20.2619 26.9826 20.5154 26.8562 20.7478L26.4606 21.4753L27.0877 20.9408C27.1266 20.9078 27.1798 20.8685 27.2282 20.8337C27.2782 20.798 27.3297 20.7636 27.3815 20.7293C27.486 20.6621 27.5926 20.5969 27.7013 20.5342C27.9186 20.4091 28.1424 20.2928 28.3711 20.1858C28.6001 20.0795 28.832 19.978 29.0682 19.8862C29.303 19.7896 29.5409 19.7088 29.7841 19.6103C29.8449 19.5878 29.9044 19.5618 29.9632 19.5344L30.1404 19.4543C30.2572 19.3983 30.3721 19.338 30.4859 19.2766C30.7105 19.1479 30.9315 19.0136 31.1399 18.8613C31.5571 18.5589 31.9452 18.2136 32.2633 17.8116Z" fill="black"/>
<path d="M25.0651 20.7716C25.1778 20.5654 25.2686 20.3477 25.3485 20.1265C25.3885 20.0159 25.422 19.9031 25.4586 19.7911L25.5493 19.4498C25.6598 18.9915 25.7138 18.5205 25.7302 18.0493L25.7363 17.6952L25.7184 17.3415L25.7093 17.1646L25.6878 16.9887L25.6448 16.6368C25.6272 16.5201 25.6005 16.4047 25.5787 16.2887L25.5443 16.1146C25.5327 16.0567 25.5229 15.9982 25.5053 15.9418L25.4107 15.5999C25.3785 15.4861 25.3509 15.3708 25.3072 15.2608L25.187 14.9269C25.1472 14.8155 25.1081 14.7035 25.0601 14.5961L24.9227 14.2703C24.8773 14.1616 24.8316 14.0529 24.7806 13.9465C24.5853 13.5173 24.3793 13.0919 24.1445 12.6816C23.6807 11.8591 23.1404 11.0722 22.4897 10.3801C22.4081 10.2939 22.3284 10.2059 22.2451 10.1214L21.9888 9.87434C21.9456 9.8337 21.9043 9.79085 21.8595 9.75193L21.7254 9.63491C21.6355 9.55744 21.5475 9.4776 21.4559 9.40214C21.2686 9.2566 21.0872 9.10281 20.8916 8.96841C20.7949 8.89976 20.6997 8.82871 20.6017 8.76198L20.3042 8.56703C20.2059 8.50045 20.1044 8.43946 20.0026 8.37896L19.6976 8.19641L19.3868 8.02467L19.2314 7.93882C19.1787 7.9109 19.1234 7.88514 19.0695 7.85821C18.6349 7.64646 18.1739 7.4986 17.7053 7.40005C16.7669 7.20179 15.8004 7.18488 14.8533 7.29345C13.9054 7.4032 12.9733 7.65399 12.0974 8.03788C11.6597 8.23052 11.236 8.45717 10.8351 8.72048C10.4344 8.9839 10.059 9.28675 9.71396 9.62117C9.36932 9.95601 9.05673 10.3245 8.78321 10.7205L8.58676 11.0232C8.52402 11.1249 8.46571 11.2279 8.40496 11.3302C8.34336 11.4319 8.28903 11.5377 8.23094 11.6413C8.17262 11.7449 8.1181 11.8504 8.06441 11.9565C7.19454 13.6456 6.6591 15.5161 6.56272 17.4205C6.51525 18.3718 6.57806 19.3308 6.7709 20.2663C6.96345 21.2005 7.28724 22.1144 7.76086 22.9454C7.8799 23.1521 7.99295 23.3623 8.1302 23.5582L8.3278 23.8569C8.39799 23.9534 8.47153 24.0477 8.5432 24.1432C8.68245 24.3376 8.84391 24.5146 8.99928 24.6961L9.05805 24.7638L9.12073 24.828L9.24608 24.9564C9.33044 25.0412 9.41095 25.1298 9.50177 25.208L9.7677 25.4492L10.0472 25.6749L10.1173 25.7311L10.1902 25.7836L10.3362 25.8885C10.432 25.9606 10.5342 26.0236 10.6351 26.0884C10.8363 26.219 11.048 26.3335 11.2634 26.4404C11.3171 26.4676 11.373 26.4907 11.4276 26.516C11.4822 26.5416 11.5377 26.5652 11.5943 26.5871C11.6503 26.61 11.7066 26.6323 11.7646 26.652C11.8226 26.6732 11.8783 26.6913 11.9437 26.7099L12.0301 26.7344L12.0876 26.6633L14.7449 23.3788L14.5464 23.2817L13.7487 26.8776L13.727 26.9756L13.8242 26.9874C14.1802 27.031 14.5317 27.0499 14.8862 27.0564C15.24 27.0629 15.5939 27.0553 15.9468 27.0324C16.652 26.9848 17.3562 26.8839 18.0373 26.6903C18.7183 26.5014 19.3773 26.216 19.9574 25.8101C20.2446 25.6036 20.5088 25.3664 20.7436 25.1028C20.9728 24.834 21.1669 24.5382 21.3287 24.226C21.1583 24.5338 20.9568 24.823 20.7221 25.0836C20.4819 25.3393 20.2134 25.5657 19.9251 25.7634C19.3435 26.1528 18.6876 26.4211 18.0112 26.5939C17.3348 26.7714 16.6369 26.8569 15.9391 26.8897C15.2418 26.9193 14.5371 26.8946 13.8498 26.8081L13.9252 26.9179L14.7678 23.3322L14.878 22.863L14.5693 23.235L11.8713 26.4861L12.0152 26.4395C11.9679 26.4252 11.9119 26.4067 11.86 26.3868C11.8069 26.3681 11.7543 26.3464 11.7018 26.3242C11.6491 26.3031 11.5969 26.2802 11.5455 26.2552C11.4938 26.2305 11.4413 26.2081 11.3905 26.1816C11.2895 26.1273 11.1859 26.0784 11.0879 26.018C10.9887 25.9603 10.8887 25.904 10.7936 25.8392C10.6973 25.7765 10.5998 25.7156 10.5083 25.6457L10.3688 25.5442L10.299 25.4934L10.232 25.4389L9.96477 25.2202L9.7103 24.9864C9.62335 24.9108 9.5463 24.8246 9.46561 24.7424L9.34559 24.618L9.28551 24.5558L9.22931 24.4901C9.08056 24.3138 8.92582 24.1425 8.79264 23.9535C8.72388 23.8607 8.65337 23.7694 8.58609 23.6756L8.39689 23.3853C8.26526 23.1953 8.15714 22.9905 8.04296 22.7895C7.59142 21.9843 7.28546 21.1034 7.09926 20.1989C6.91456 19.2935 6.85539 18.3626 6.90352 17.438C6.95059 16.5128 7.10889 15.5936 7.35831 14.7007C7.60607 13.8071 7.94509 12.9382 8.36885 12.1123C8.421 12.0086 8.47408 11.9055 8.53085 11.8042C8.58734 11.7029 8.64012 11.5994 8.70011 11.5001C8.75908 11.4003 8.81637 11.2987 8.87667 11.2004L9.06314 10.9118C9.32291 10.5342 9.61986 10.1825 9.94819 9.86218C10.6038 9.21907 11.3881 8.71112 12.2291 8.33498C13.0712 7.95952 13.9722 7.71037 14.8902 7.59839C15.8072 7.48554 16.7434 7.50202 17.6474 7.67946C18.0989 7.76838 18.5409 7.90486 18.9535 8.09967C19.0049 8.1246 19.0565 8.14763 19.1079 8.17414L19.262 8.25668L19.5699 8.42193L19.8716 8.5976C19.9725 8.6558 20.0731 8.71445 20.1701 8.77854L20.4643 8.96619C20.5612 9.03036 20.6551 9.0988 20.7508 9.16491C20.9443 9.29427 21.1234 9.44256 21.3088 9.58284C21.3993 9.65561 21.4863 9.73261 21.5753 9.80736L21.708 9.92028C21.7524 9.9578 21.7932 9.99919 21.836 10.0385L22.09 10.2773C22.1725 10.359 22.2515 10.4443 22.3325 10.5276C22.9784 11.1976 23.5194 11.9643 23.9876 12.7711C24.1089 12.9706 24.2144 13.1792 24.3251 13.385L24.4078 13.5395L24.4849 13.6969L24.6386 14.0123C24.6913 14.1168 24.7388 14.2236 24.7861 14.3307L24.9289 14.6514C24.9791 14.7576 25.0195 14.8667 25.061 14.9756L25.1861 15.3023C25.2315 15.41 25.2609 15.523 25.2949 15.6345L25.3951 15.9698C25.4136 16.0252 25.4243 16.0826 25.4371 16.1395L25.4744 16.3105C25.4982 16.4246 25.5269 16.5381 25.5466 16.6529L25.5962 16.9996L25.621 17.173L25.6335 17.3477L25.6583 17.6972L25.6593 18.0478C25.6456 18.9794 25.4782 19.9255 25.0651 20.7716Z" fill="black"/>
<path d="M20.8791 23.9283C20.2788 23.3661 19.8868 22.6063 19.7589 21.814C19.7385 21.7156 19.7324 21.6151 19.7218 21.5154C19.7085 21.416 19.7105 21.3153 19.7062 21.2154C19.709 21.0153 19.718 20.8149 19.7505 20.6171C19.8061 20.2206 19.9212 19.8338 20.0751 19.4652C20.1565 19.2826 20.2416 19.1016 20.3444 18.9303C20.3923 18.8428 20.4484 18.7601 20.5005 18.6752C20.5578 18.5938 20.6113 18.5095 20.673 18.4315L20.7638 18.3132L20.86 18.1994C20.9217 18.1246 20.9962 18.0443 21.0621 17.9647C21.1974 17.8049 21.3276 17.6383 21.4469 17.4621C21.6874 17.1116 21.875 16.7148 21.9828 16.2969C22.089 15.8839 22.1424 15.4624 22.1573 15.0411C22.1692 14.6194 22.1439 14.1997 22.0895 13.7843C22.0353 13.3665 21.9446 12.9541 21.8189 12.5539C21.5642 11.754 21.1931 10.9982 20.7432 10.2996C20.5185 9.94963 20.2793 9.61129 20.0218 9.28525C19.7644 8.9604 19.4726 8.64665 19.1317 8.40116C18.7931 8.15283 18.42 7.95887 18.0331 7.81046C17.6456 7.66241 17.2448 7.55801 16.8406 7.48251C17.0386 7.53835 17.2349 7.59899 17.4275 7.66926C17.6203 7.73817 17.811 7.81251 17.9956 7.89922C18.3649 8.07131 18.7172 8.27822 19.0271 8.536C19.3425 8.78775 19.6032 9.09387 19.8406 9.42321C20.0774 9.75367 20.3054 10.0925 20.5124 10.442C20.9248 11.1413 21.2777 11.8765 21.5042 12.6499C21.6178 13.0358 21.7046 13.429 21.7525 13.8268C21.8025 14.2264 21.8233 14.6299 21.8101 15.0299C21.7988 15.4297 21.7502 15.8287 21.6541 16.2125C21.6062 16.4019 21.5412 16.5865 21.4603 16.7647C21.3792 16.9429 21.2809 17.1138 21.1736 17.2803C21.0658 17.4468 20.9459 17.607 20.8186 17.7632L20.6231 17.9996L20.5228 18.1232L20.4285 18.2514C20.1776 18.5934 19.98 18.9712 19.8248 19.3634C19.7516 19.5614 19.6827 19.7611 19.6345 19.9667C19.6064 20.0683 19.5895 20.1728 19.5674 20.2758C19.5526 20.3803 19.5329 20.484 19.5255 20.5893C19.501 20.7989 19.5009 21.0106 19.5075 21.221C19.5167 21.326 19.5198 21.4315 19.5382 21.5354C19.5544 21.6394 19.5647 21.7442 19.5922 21.846C19.7728 22.6655 20.2269 23.4232 20.8791 23.9283Z" fill="black"/>
<path d="M21.8037 13.3986C21.5282 13.0855 21.1996 12.8201 20.8496 12.5868C20.4971 12.3566 20.1135 12.1674 19.7058 12.0373C19.2985 11.9066 18.8651 11.8419 18.4305 11.8589C18.2134 11.8683 17.9973 11.8998 17.785 11.9479C17.5743 12.0013 17.3658 12.0675 17.1684 12.1576C17.1192 12.1802 17.0683 12.2008 17.0211 12.2256L16.8805 12.3019L16.5997 12.4547C16.5098 12.5118 16.4217 12.5719 16.3327 12.6304L16.1995 12.7187C16.1555 12.7487 16.1151 12.7836 16.0729 12.8161L15.8227 13.0144C15.7432 13.0851 15.6661 13.1585 15.5882 13.2307C15.5499 13.2675 15.5093 13.3019 15.473 13.3406L15.3643 13.4571L15.2569 13.5744L15.2034 13.6331L15.1535 13.6951C14.877 14.0165 14.6482 14.375 14.4508 14.7457C14.2592 15.1192 14.0981 15.5101 14.0111 15.9183C14.1715 15.5347 14.3703 15.1727 14.5981 14.8321C14.7096 14.6605 14.8307 14.4958 14.9568 14.3359C15.0226 14.2579 15.0862 14.1787 15.1502 14.1L15.3561 13.8755L15.4074 13.8195L15.4623 13.7668L15.572 13.6618L15.6807 13.556C15.7169 13.5207 15.7572 13.49 15.7952 13.4567L16.0259 13.2607L16.2693 13.081C16.3102 13.0517 16.3493 13.0197 16.3914 12.9921L16.519 12.9113C16.6043 12.8577 16.6885 12.8026 16.7744 12.7503L17.0409 12.6081L17.174 12.5367C17.2184 12.5136 17.2642 12.4962 17.309 12.4754C17.6688 12.3115 18.0555 12.2172 18.4487 12.1872C18.6456 12.1755 18.8439 12.176 19.0418 12.1958C19.2394 12.217 19.4369 12.2493 19.632 12.2971C20.0205 12.3977 20.4018 12.5437 20.764 12.7334C21.1279 12.9199 21.4766 13.1423 21.8037 13.3986Z" fill="black"/>
<path d="M18.9403 26.3861C18.6134 26.7655 18.3302 27.1823 18.0741 27.6143C17.8181 28.0468 17.5957 28.4996 17.403 28.9656C17.0228 29.899 16.7747 30.8933 16.7058 31.9071C16.6303 32.9202 16.7441 33.9479 17.0218 34.9273C17.2999 35.906 17.7431 36.8399 18.3302 37.6742C18.9226 38.5046 19.6568 39.2326 20.4885 39.819C21.3221 40.4025 22.2434 40.8578 23.2115 41.1584C24.1782 41.4626 25.1901 41.6203 26.2003 41.6118C26.4531 41.6085 26.7043 41.5946 26.9567 41.568C27.2063 41.5382 27.4546 41.5048 27.7022 41.4642C28.197 41.3844 28.6901 41.2881 29.172 41.1522C28.927 41.2031 28.6803 41.2433 28.433 41.2778C28.1857 41.3133 27.9378 41.3433 27.6896 41.3687C27.4413 41.3936 27.1927 41.4167 26.9444 41.4339C26.6984 41.4481 26.4493 41.4499 26.202 41.4412C25.7069 41.4258 25.2135 41.3704 24.7278 41.278C24.2421 41.1856 23.7627 41.0615 23.2961 40.9007C22.3638 40.5779 21.4745 40.1306 20.6798 39.5513C19.8825 38.977 19.1787 38.2748 18.6136 37.4734C18.0439 36.675 17.6163 35.7776 17.3369 34.8354C17.1939 34.3655 17.0941 33.8829 17.0331 33.3954C16.9739 32.9077 16.9548 32.4147 16.9755 31.9225C17.0196 30.9381 17.2243 29.9595 17.5614 29.0265C17.7281 28.559 17.9293 28.1032 18.1579 27.6607C18.2722 27.4395 18.3942 27.2219 18.5243 27.009C18.6536 26.7957 18.7895 26.5857 18.9403 26.3861Z" fill="black"/>
<path d="M41.5525 31.6956C41.6833 32.3295 41.6363 32.9737 41.4641 33.5714C41.3723 33.869 41.2586 34.1586 41.1108 34.4322C40.9602 34.7044 40.7969 34.9687 40.5938 35.1984C40.3998 35.4366 40.1671 35.6402 39.9177 35.8184C39.8537 35.8607 39.7927 35.9082 39.7263 35.9468L39.5258 36.0616C39.4583 36.099 39.3867 36.1278 39.3174 36.1622C39.2487 36.1986 39.1756 36.2239 39.1034 36.252C38.8136 36.3605 38.5088 36.439 38.1966 36.4683C37.8849 36.4988 37.5646 36.4873 37.2587 36.3784C37.3278 36.4187 37.3974 36.4658 37.4747 36.4931C37.5129 36.5079 37.5511 36.5249 37.5903 36.5375L37.7096 36.5704C37.8699 36.6129 38.0353 36.6295 38.2013 36.6389C38.5335 36.6491 38.8679 36.6038 39.1889 36.5095C39.5108 36.4182 39.822 36.2789 40.1023 36.0915C40.1378 36.0686 40.1744 36.0473 40.2087 36.0228L40.3087 35.9453C40.3742 35.8922 40.4448 35.8448 40.5059 35.7865L40.6891 35.6115C40.7041 35.5968 40.7199 35.5826 40.7344 35.5674L40.7758 35.5195L40.8584 35.4236C40.9728 35.2989 41.0636 35.1565 41.1595 35.0183L41.1947 34.966L41.2254 34.9114L41.2866 34.8022L41.3476 34.6929C41.3688 34.657 41.3877 34.6198 41.404 34.5812L41.5071 34.3529C41.5424 34.2773 41.5651 34.196 41.5944 34.1179L41.6358 33.9999C41.6476 33.9599 41.6582 33.9193 41.6685 33.8788C41.6876 33.7975 41.7136 33.7182 41.7266 33.6356C41.7973 33.3096 41.8148 32.9738 41.7913 32.6446C41.7736 32.4802 41.7538 32.3167 41.713 32.1574C41.6744 31.9983 41.6248 31.8412 41.5525 31.6956Z" fill="black"/>
<path d="M25.0304 32.6756C25.0654 32.8024 25.1076 32.9037 25.1514 33.0063C25.1949 33.1083 25.2413 33.2058 25.2885 33.3026C25.3835 33.4955 25.4835 33.6829 25.5864 33.8683C25.7922 34.2388 26.0104 34.5998 26.2369 34.9555C26.6928 35.6646 27.176 36.3565 27.7356 36.9966C28.3018 37.6348 28.9793 38.1684 29.7187 38.5753C30.4583 38.9825 31.2592 39.2689 32.0811 39.4194C31.2709 39.2155 30.4988 38.8794 29.8025 38.4343C29.1042 37.9909 28.4921 37.4271 27.9819 36.7888C27.4708 36.1462 27.0263 35.4432 26.6125 34.7278C26.4069 34.369 26.2097 34.0052 26.0268 33.6367C25.9356 33.4525 25.8476 33.267 25.7666 33.0812C25.7266 32.9884 25.6876 32.8953 25.6534 32.8036C25.6191 32.7127 25.5869 32.6184 25.5704 32.5427L25.0304 32.6756Z" fill="black"/>
<path d="M37.0994 36.3967C36.8952 36.7491 36.6859 37.0905 36.462 37.4215C36.2413 37.7539 36.0072 38.0751 35.7615 38.3855C35.6416 38.5432 35.5099 38.6907 35.3846 38.8437L35.1856 39.0633C35.1525 39.0998 35.1204 39.1377 35.0864 39.1733L34.9824 39.2788C34.7129 39.5692 34.4137 39.8271 34.1145 40.0917L34.2354 40.0928C34.1013 40.0078 33.9646 39.9263 33.8274 39.8457C33.7594 39.8046 33.689 39.7667 33.6199 39.7271C33.5504 39.6878 33.48 39.65 33.4089 39.6131C33.4653 39.67 33.5223 39.7261 33.5805 39.7806C33.639 39.8348 33.6961 39.8907 33.7556 39.9434C33.8735 40.0504 33.992 40.1565 34.113 40.2592L34.1651 40.3035L34.2339 40.2602C34.5806 40.0424 34.9174 39.7999 35.2132 39.5133L35.3263 39.408C35.3632 39.3721 35.3978 39.3341 35.4336 39.2971C35.5051 39.2231 35.5749 39.1474 35.6449 39.072C35.7767 38.9142 35.9125 38.7592 36.0309 38.591C36.2753 38.2609 36.4922 37.9109 36.6735 37.5437C36.8524 37.1761 37.0082 36.7952 37.0994 36.3967Z" fill="black"/>
<path d="M35.2644 36.8516C35.085 37.1883 34.8995 37.5182 34.7002 37.8372C34.5005 38.1557 34.2892 38.4651 34.0516 38.7467C33.8134 39.0244 33.5527 39.2882 33.2498 39.4507C33.1 39.5329 32.9412 39.5866 32.7816 39.6002C32.6219 39.6149 32.4621 39.5855 32.3084 39.5242L32.4052 39.7196C32.4659 39.4587 32.524 39.1972 32.5798 38.935C32.6373 38.6732 32.6866 38.4095 32.7403 38.1469C32.7896 37.8832 32.8407 37.6199 32.8837 37.3546C32.9289 37.09 32.97 36.8242 33.0037 36.5567C32.9101 36.8096 32.8241 37.0644 32.742 37.32C32.658 37.5753 32.582 37.8325 32.5041 38.0891C32.4306 38.347 32.3528 38.6038 32.2831 38.8625C32.2118 39.1208 32.1428 39.3797 32.0763 39.6392L32.0413 39.7759L32.1731 39.8347C32.3686 39.9217 32.5918 39.9643 32.8103 39.9459C33.0292 39.9286 33.2354 39.8524 33.4164 39.7507C33.5972 39.6469 33.7582 39.5201 33.899 39.3785C34.0412 39.2383 34.1682 39.0869 34.2849 38.9299C34.5133 38.6124 34.706 38.2765 34.8672 37.9277C35.0285 37.5793 35.1668 37.2213 35.2644 36.8516Z" fill="black"/>
<path d="M34.1893 40.1137C33.7632 40.2979 33.3266 40.4488 32.8835 40.5708C32.4411 40.6947 31.992 40.7882 31.5405 40.8517C31.0886 40.9108 30.6342 40.945 30.1813 40.9309C29.7288 40.9208 29.278 40.873 28.8369 40.7781C28.3957 40.6839 27.9663 40.5414 27.5527 40.3616C27.1346 40.1886 26.7498 39.9471 26.3709 39.6975C25.6289 39.1719 24.9749 38.5176 24.3896 37.7966C24.8556 38.5997 25.4693 39.328 26.2096 39.9155C26.3007 39.9907 26.4001 40.055 26.4953 40.1253L26.6407 40.2274C26.6894 40.261 26.7416 40.289 26.792 40.3201C26.8941 40.3802 26.9949 40.4429 27.0983 40.501L27.4163 40.6611C27.8475 40.86 28.3003 41.013 28.7643 41.1178C29.2304 41.2113 29.7047 41.2601 30.1781 41.2591C30.6513 41.2545 31.1235 41.2113 31.585 41.1182C32.0472 41.0295 32.4989 40.8964 32.9366 40.7321C33.3722 40.5627 33.7982 40.3661 34.1893 40.1137Z" fill="black"/>
<path d="M38.8478 36.4809C38.5988 36.7552 38.3417 37.0158 38.0755 37.2659C38.0076 37.327 37.9399 37.3882 37.8739 37.4509L37.6676 37.6302C37.5277 37.7465 37.3907 37.8664 37.2438 37.9736C37.1032 38.0892 36.9522 38.1903 36.8052 38.2974L36.5781 38.4482L36.464 38.5232L36.3472 38.5937C36.0392 38.7902 35.7108 38.9483 35.3804 39.1186C35.47 39.0959 35.5596 39.072 35.649 39.0463L35.783 39.0071C35.8272 38.9927 35.8702 38.9751 35.9139 38.9592L36.1741 38.857C36.2594 38.8196 36.3419 38.7763 36.4262 38.736L36.552 38.6744C36.593 38.652 36.6327 38.6275 36.6731 38.6043L36.9144 38.462C37.0687 38.3571 37.225 38.2542 37.3714 38.1384C37.6652 37.9083 37.9432 37.6576 38.1912 37.3794C38.4403 37.1033 38.6685 36.8062 38.8478 36.4809Z" fill="black"/>
<path d="M37.7629 27.2233C38.0635 28.0234 38.843 28.4899 39.5039 28.2654C40.1647 28.0409 40.4567 27.2103 40.156 26.4103C39.8553 25.6103 39.0759 25.1437 38.415 25.3683C37.7542 25.5928 37.4622 26.4233 37.7629 27.2233Z" stroke="black" stroke-width="0.208543" stroke-miterlimit="10"/>
<path d="M33.16 28.377C33.5202 29.3354 34.5613 29.8577 35.4854 29.5438C36.4095 29.2298 36.8666 28.1985 36.5065 27.2402C36.1463 26.2818 35.1052 25.7594 34.1811 26.0733C33.2569 26.3873 32.7998 27.4186 33.16 28.377Z" stroke="black" stroke-width="0.208543" stroke-miterlimit="10"/>
<path d="M34.1816 26.0732C34.1816 26.0732 33.1368 28.6532 35.3398 29.5347" stroke="black" stroke-width="0.208543" stroke-miterlimit="10"/>
<path d="M37.6221 26.3704C37.6221 26.3704 36.75 25.8728 36.2495 26.6967" stroke="black" stroke-width="0.208543" stroke-miterlimit="10"/>
<path d="M27.7895 24.9583C27.9378 26.2608 29.286 27.1767 30.8007 27.0042C32.3155 26.8317 33.4232 25.636 33.2749 24.3336C33.1265 23.0311 31.7783 22.1151 30.2636 22.2876C28.7489 22.4601 27.6412 23.6558 27.7895 24.9583Z" stroke="black" stroke-width="0.208543" stroke-miterlimit="10"/>
<path d="M33.2362 25.1356C33.7356 25.8048 34.662 25.9383 35.3312 25.6791C35.5726 25.5856 35.8057 25.4461 35.9731 25.2278C36.1868 24.9489 36.275 24.561 36.263 24.1832C36.2488 23.7388 36.1184 23.2672 35.9069 22.8876C35.3241 21.8419 34.1467 21.3999 33.22 22.0293C32.9597 22.2061 32.5966 22.5377 32.5819 22.9229" stroke="black" stroke-width="0.208543" stroke-miterlimit="10"/>
<path d="M31.6324 25.4693C31.6629 25.7369 31.8755 25.9324 32.1074 25.9061C32.3393 25.8797 32.5025 25.6413 32.472 25.3737C32.4415 25.1061 32.2288 24.9105 31.997 24.9369C31.7652 24.9633 31.602 25.2017 31.6324 25.4693Z" fill="black"/>
<path d="M34.8483 24.5306C34.8778 24.7894 35.0834 24.9784 35.3075 24.9529C35.5316 24.9273 35.6894 24.6969 35.6599 24.4382C35.6305 24.1795 35.4249 23.9905 35.2008 24.016C34.9767 24.0415 34.8189 24.2719 34.8483 24.5306Z" fill="black"/>
<path d="M26.1168 28.8881C26.1638 29.2119 26.1892 29.5347 26.1795 29.8557C26.1734 30.1764 26.1323 30.4947 26.058 30.8032C25.9815 31.1111 25.8801 31.4118 25.7405 31.6943C25.7029 31.7635 25.6714 31.8358 25.632 31.9039L25.5123 32.107L25.3786 32.3009C25.333 32.3647 25.2813 32.4239 25.233 32.4858C24.8353 32.9706 24.3179 33.3556 23.7321 33.5966C23.1465 33.8395 22.5034 33.9545 21.8509 33.9522C22.4944 34.0703 23.1764 34.0172 23.8091 33.7995C23.8871 33.7696 23.9682 33.7465 24.0442 33.7107C24.1202 33.6757 24.1982 33.6436 24.2726 33.6047L24.4941 33.4839L24.7062 33.3465C24.9812 33.1516 25.2312 32.9213 25.4476 32.6623C25.8793 32.1419 26.1563 31.5036 26.2698 30.8463C26.3876 30.188 26.325 29.5066 26.1168 28.8881Z" fill="black"/>
<path d="M25.5866 32.2849C26.5871 33.373 27.7363 34.3336 29.0039 35.1159C29.3215 35.3104 29.6456 35.4952 29.9786 35.6639C30.3117 35.8322 30.6524 35.9864 30.9995 36.1259C31.6934 36.4059 32.4195 36.6112 33.1608 36.7359C33.9015 36.865 34.6625 36.8814 35.4083 36.8271C35.7831 36.7999 36.1565 36.7462 36.5251 36.6656C36.8933 36.5846 37.2579 36.4776 37.6069 36.3276C37.956 36.1791 38.2897 35.9881 38.5898 35.7516C38.7401 35.6348 38.8774 35.4966 39.0042 35.3592C39.1305 35.2211 39.2521 35.0766 39.3641 34.9254C39.5874 34.6227 39.7739 34.2903 39.8977 33.9352C39.9592 33.7577 40.003 33.5745 40.0282 33.3895C40.0529 33.2042 40.0536 33.017 40.0375 32.8332C40.0333 33.2032 39.9475 33.5654 39.8005 33.8974C39.6558 34.2309 39.453 34.5354 39.2212 34.8132C39.1053 34.9526 38.9815 35.0844 38.8512 35.2117C38.7207 35.3388 38.5887 35.4547 38.4432 35.5594C38.1543 35.7687 37.8347 35.9355 37.4991 36.0625C36.829 36.3233 36.1065 36.4415 35.3844 36.492C35.0228 36.5145 34.6566 36.5224 34.2964 36.5065C33.9348 36.4905 33.5741 36.4535 33.2159 36.3972C32.4994 36.2835 31.7974 36.0827 31.1149 35.8287C30.7741 35.6998 30.4385 35.5561 30.1092 35.3983C29.7795 35.2412 29.4544 35.0733 29.1362 34.8922C27.8624 34.1677 26.6817 33.2763 25.5866 32.2849Z" fill="black"/>
</svg>
