<svg width="48" height="48" viewBox="0 0 48 48" fill="none" xmlns="http://www.w3.org/2000/svg">
    <g clip-path="url(#clip0_709_4129)">
        <circle cx="34.5" cy="34.5" r="6" fill="white"/>
        <path d="M34.107 28.5032C34.0812 28.5056 33.9991 28.5138 33.9252 28.5196C32.2208 28.6733 30.6243 29.5928 29.6132 31.0061C29.0501 31.7919 28.69 32.6833 28.554 33.6274C28.5059 33.957 28.5 34.0543 28.5 34.5012C28.5 34.948 28.5059 35.0454 28.554 35.3749C28.8801 37.628 30.4836 39.521 32.6584 40.2223C33.0478 40.3478 33.4584 40.4334 33.9252 40.485C34.107 40.505 34.893 40.505 35.0748 40.485C35.8806 40.3959 36.5633 40.1965 37.2367 39.8529C37.3399 39.8001 37.3598 39.786 37.3457 39.7743C37.3364 39.7673 36.8965 39.1773 36.3686 38.4642L35.4091 37.1682L34.2067 35.389C33.5452 34.4109 33.0009 33.611 32.9962 33.611C32.9915 33.6098 32.9868 34.4003 32.9845 35.3656C32.9809 37.0556 32.9798 37.1237 32.9587 37.1635C32.9282 37.221 32.9047 37.2445 32.8554 37.2703C32.8179 37.289 32.785 37.2926 32.6079 37.2926H32.405L32.351 37.2585C32.3158 37.2363 32.29 37.2069 32.2724 37.1729L32.2478 37.1201L32.2501 34.7686L32.2537 32.4159L32.29 32.3701C32.3088 32.3455 32.3487 32.3138 32.3768 32.2986C32.4249 32.2751 32.4437 32.2728 32.6466 32.2728C32.8859 32.2728 32.9258 32.2821 32.988 32.3502C33.0056 32.3689 33.6566 33.3494 34.4355 34.5305C35.2144 35.7116 36.2795 37.3242 36.8026 38.1159L37.7528 39.555L37.8009 39.5233C38.2267 39.2465 38.6771 38.8524 39.0337 38.4419C39.7927 37.5705 40.2818 36.5079 40.446 35.3749C40.4941 35.0454 40.5 34.948 40.5 34.5012C40.5 34.0543 40.4941 33.957 40.446 33.6274C40.1199 31.3744 38.5164 29.4814 36.3416 28.78C35.9581 28.6557 35.5499 28.5701 35.0924 28.5185C34.9798 28.5067 34.2044 28.4938 34.107 28.5032ZM36.5633 32.132C36.6196 32.1602 36.6654 32.2141 36.6818 32.2704C36.6912 32.3009 36.6935 32.953 36.6912 34.4226L36.6877 36.5314L36.3158 35.9614L35.9428 35.3914V33.8585C35.9428 32.8674 35.9475 32.3103 35.9545 32.2833C35.9733 32.2176 36.0144 32.166 36.0707 32.1355C36.1188 32.1109 36.1364 32.1086 36.3205 32.1086C36.4941 32.1086 36.5246 32.1109 36.5633 32.132Z" fill="black"/>
    </g>
    <path fill-rule="evenodd" clip-rule="evenodd" d="M27.6522 33.0433H27.0001C27.0001 32.6897 26.8596 32.3505 26.6096 32.1005C26.3595 31.8504 26.0204 31.71 25.6667 31.71H24.3334H23.0001H21.6667H20.3334C19.9798 31.71 19.6407 31.8504 19.3906 32.1005C19.1406 32.3505 19.0001 32.6897 19.0001 33.0433H9.66675V35.71H19.0001C19.0001 36.0636 19.1406 36.4027 19.3906 36.6528C19.6407 36.9028 19.9798 37.0433 20.3334 37.0433H25.6667C26.0204 37.0433 26.3595 36.9028 26.6096 36.6528C26.8596 36.4027 27.0001 36.0636 27.0001 35.71H27.6043C27.5359 35.3172 27.5002 34.9133 27.5002 34.501C27.5002 34.0011 27.5526 33.5135 27.6522 33.0433Z" fill="#B79C7E"/>
    <path fill-rule="evenodd" clip-rule="evenodd" d="M12.3333 29.0431H21.6667H24.3333H30.1167C31.3164 28.0783 32.8409 27.501 34.5002 27.501C34.6683 27.501 34.8349 27.5069 35 27.5185V22.3765C35 22.0228 34.8595 21.6837 34.6095 21.4337C34.3594 21.1836 34.0203 21.0431 33.6667 21.0431H12.3333C11.9797 21.0431 11.6406 21.1836 11.3905 21.4337C11.1405 21.6837 11 22.0228 11 22.3765V27.7098C11 28.0634 11.1405 28.4026 11.3905 28.6526C11.6406 28.9027 11.9797 29.0431 12.3333 29.0431ZM33.6667 10.3765H12.3333C11.9797 10.3765 11.6406 10.5169 11.3905 10.767C11.1405 11.017 11 11.3562 11 11.7098V17.0431C11 17.3968 11.1405 17.7359 11.3905 17.9859C11.6406 18.236 11.9797 18.3765 12.3333 18.3765H33.6667C34.0203 18.3765 34.3594 18.236 34.6095 17.9859C34.8595 17.7359 35 17.3968 35 17.0431V11.7098C35 11.3562 34.8595 11.017 34.6095 10.767C34.3594 10.5169 34.0203 10.3765 33.6667 10.3765ZM20.3333 15.7098H19V13.0431H20.3333V15.7098ZM20.3333 26.3765H19V23.7098H20.3333V26.3765ZM13.6667 15.7098V13.0431H16.3333V15.7098H13.6667ZM13.6667 26.3765V23.7098H16.3333V26.3765H13.6667Z" fill="#CED1D6"/>
    <defs>
        <clipPath id="clip0_709_4129">
            <rect width="12" height="12" fill="white" transform="translate(28.5 28.5)"/>
        </clipPath>
    </defs>
</svg>
