<svg width="49" height="48" viewBox="0 0 49 48" fill="none" xmlns="http://www.w3.org/2000/svg">
    <path fill-rule="evenodd" clip-rule="evenodd" d="M8.00244 12.147C8.00244 11.5947 8.45016 11.147 9.00244 11.147H39.0024C39.5547 11.147 40.0024 11.5947 40.0024 12.147V15.147C40.0024 15.6993 39.5547 16.147 39.0024 16.147H9.00244C8.45016 16.147 8.00244 15.6993 8.00244 15.147V12.147Z" fill="#CED1D6"/>
    <path fill-rule="evenodd" clip-rule="evenodd" d="M8.00244 19.147C8.00244 18.5947 8.45016 18.147 9.00244 18.147H39.0024C39.5547 18.147 40.0024 18.5947 40.0024 19.147V22.147C40.0024 22.6993 39.5547 23.147 39.0024 23.147H9.00244C8.45016 23.147 8.00244 22.6993 8.00244 22.147V19.147Z" fill="#CED1D6"/>
    <path fill-rule="evenodd" clip-rule="evenodd" d="M8.00244 26.147C8.00244 25.5947 8.45016 25.147 9.00244 25.147H39.0024C39.5547 25.147 40.0024 25.5947 40.0024 26.147V29.147C40.0024 29.6993 39.5547 30.147 39.0024 30.147H9.00244C8.45016 30.147 8.00244 29.6993 8.00244 29.147V26.147Z" fill="#CED1D6"/>
    <path d="M39.0024 32.147H26.0024C25.4502 32.147 25.0024 32.5947 25.0024 33.147V36.147C25.0024 36.6993 25.4502 37.147 26.0024 37.147H39.0024C39.5547 37.147 40.0024 36.6993 40.0024 36.147V33.147C40.0024 32.5947 39.5547 32.147 39.0024 32.147Z" fill="#D72323"/>
    <rect x="8.00244" y="32.147" width="15" height="5" rx="1" fill="#57ACDC"/>
</svg>
