<svg width="50" height="48" viewBox="0 0 50 48" fill="none" xmlns="http://www.w3.org/2000/svg">
<g filter="url(#filter0_d)">
<path d="M45.9201 12C44.3801 12.7 42.7201 13.16 41.0001 13.38C42.7601 12.32 44.1201 10.64 44.7601 8.62C43.1001 9.62 41.2601 10.32 39.3201 10.72C37.7401 9 35.5201 8 33.0001 8C28.3001 8 24.4601 11.84 24.4601 16.58C24.4601 17.26 24.5401 17.92 24.6801 18.54C17.5601 18.18 11.2201 14.76 7.00008 9.58C6.26008 10.84 5.84008 12.32 5.84008 13.88C5.84008 16.86 7.34008 19.5 9.66008 21C8.24008 21 6.92008 20.6 5.76008 20C5.76008 20 5.76008 20 5.76008 20.06C5.76008 24.22 8.72008 27.7 12.6401 28.48C11.9201 28.68 11.1601 28.78 10.3801 28.78C9.84008 28.78 9.30008 28.72 8.78008 28.62C9.86008 32 13.0001 34.52 16.7801 34.58C13.8601 36.9 10.1601 38.26 6.12008 38.26C5.44008 38.26 4.76008 38.22 4.08008 38.14C7.88008 40.58 12.4001 42 17.2401 42C33.0001 42 41.6601 28.92 41.6601 17.58C41.6601 17.2 41.6601 16.84 41.6401 16.46C43.3201 15.26 44.7601 13.74 45.9201 12Z" fill="#E5EFF5"/>
</g>
<defs>
<filter id="filter0_d" x="-3" y="-2" width="56" height="56" filterUnits="userSpaceOnUse" color-interpolation-filters="sRGB">
<feFlood flood-opacity="0" result="BackgroundImageFix"/>
<feColorMatrix in="SourceAlpha" type="matrix" values="0 0 0 0 0 0 0 0 0 0 0 0 0 0 0 0 0 0 127 0"/>
<feOffset dy="2"/>
<feGaussianBlur stdDeviation="2"/>
<feColorMatrix type="matrix" values="0 0 0 0 0 0 0 0 0 0 0 0 0 0 0 0 0 0 0.25 0"/>
<feBlend mode="normal" in2="BackgroundImageFix" result="effect1_dropShadow"/>
<feBlend mode="normal" in="SourceGraphic" in2="effect1_dropShadow" result="shape"/>
</filter>
</defs>
</svg>
