<svg width="49" height="48" viewBox="0 0 49 48" fill="none" xmlns="http://www.w3.org/2000/svg">
    <path fill-rule="evenodd" clip-rule="evenodd" d="M30.0024 13C30.0024 14.5913 29.3703 16.1174 28.2451 17.2426C27.1199 18.3679 25.5937 19 24.0024 19C23.7024 19 23.4224 19 23.1224 19L11.6024 40.66L8.00244 43V38.76L19.5824 17C17.3824 14.54 17.5824 10.74 20.0624 8.52C21.1424 7.56 22.5424 7 24.0024 7V3C24.5329 3 25.0416 3.21071 25.4167 3.58579C25.7917 3.96086 26.0024 4.46957 26.0024 5V7.36C28.4024 8.2 30.0024 10.46 30.0024 13ZM26.0024 13C26.0024 12.4696 25.7917 11.9609 25.4167 11.5858C25.0416 11.2107 24.5329 11 24.0024 11C23.472 11 22.9633 11.2107 22.5882 11.5858C22.2132 11.9609 22.0024 12.4696 22.0024 13C22.0024 13.5304 22.2132 14.0391 22.5882 14.4142C22.9633 14.7893 23.472 15 24.0024 15C24.5329 15 25.0416 14.7893 25.4167 14.4142C25.7917 14.0391 26.0024 13.5304 26.0024 13Z" fill="#CED1D6"/>
    <path d="M25.35 19.8704L28.209 25.2479C28.641 25.185 29.0907 25.1544 29.5567 25.1544C31.072 25.1544 32.2485 25.474 33.2121 25.9729L28.9516 17.9503C27.987 18.9147 26.7423 19.5989 25.35 19.8704Z" fill="#CED1D6"/>
    <path d="M40.0027 38.7598V42.9998L36.4027 40.6598L32.8274 33.935C33.6005 34.2012 34.497 34.3586 35.5602 34.3586C36.2624 34.3586 36.9279 34.2889 37.5514 34.144L40.0027 38.7598Z" fill="#CED1D6"/>
    <path d="M29.5569 26.1519C26.351 26.1519 24.3623 27.7443 23.5578 30.9502C24.7585 29.3533 26.1589 28.7574 27.7559 29.1536C28.6684 29.3817 29.3288 30.0421 30.0492 30.7745C31.2259 31.9752 32.5586 33.356 35.5604 33.356C38.7663 33.356 40.7594 31.7591 41.5639 28.5533C40.3632 30.1502 38.9584 30.7505 37.3614 30.3543C36.4489 30.1262 35.8005 29.4658 35.0681 28.7334C33.8914 27.5327 32.5586 26.1519 29.5569 26.1519Z" fill="#06B6D4"/>
</svg>
