<svg width="283" height="49" viewBox="0 0 283 49" fill="none" xmlns="http://www.w3.org/2000/svg">
<g filter="url(#filter0_d)">
<path fill-rule="evenodd" clip-rule="evenodd" d="M30.002 13C30.002 14.5913 29.3698 16.1174 28.2446 17.2426C27.1194 18.3679 25.5933 19 24.002 19C23.702 19 23.422 19 23.122 19L11.602 40.66L8.00195 43V38.76L19.582 17C17.382 14.54 17.582 10.74 20.062 8.52C21.142 7.56 22.542 7 24.002 7V3C24.5324 3 25.0411 3.21071 25.4162 3.58579C25.7912 3.96086 26.002 4.46957 26.002 5V7.36C28.402 8.2 30.002 10.46 30.002 13ZM26.002 13C26.002 12.4696 25.7912 11.9609 25.4162 11.5858C25.0411 11.2107 24.5324 11 24.002 11C23.4715 11 22.9628 11.2107 22.5877 11.5858C22.2127 11.9609 22.002 12.4696 22.002 13C22.002 13.5304 22.2127 14.0391 22.5877 14.4142C22.9628 14.7893 23.4715 15 24.002 15C24.5324 15 25.0411 14.7893 25.4162 14.4142C25.7912 14.0391 26.002 13.5304 26.002 13Z" fill="#E5EFF5"/>
<path d="M25.3495 19.8704L28.2085 25.2479C28.6405 25.185 29.0902 25.1544 29.5562 25.1544C31.0715 25.1544 32.248 25.474 33.2116 25.9729L28.9511 17.9503C27.9865 18.9147 26.7418 19.5989 25.3495 19.8704Z" fill="#E5EFF5"/>
<path d="M40.0022 38.7598V42.9998L36.4022 40.6598L32.827 33.935C33.6001 34.2012 34.4965 34.3586 35.5597 34.3586C36.2619 34.3586 36.9274 34.2889 37.5509 34.144L40.0022 38.7598Z" fill="#E5EFF5"/>
<path d="M29.5562 26.1519C26.3504 26.1519 24.3616 27.7443 23.5571 30.9502C24.7578 29.3533 26.1583 28.7574 27.7552 29.1536C28.6677 29.3817 29.3281 30.0421 30.0485 30.7745C31.2252 31.9752 32.558 33.356 35.5597 33.356C38.7656 33.356 40.7588 31.7591 41.5632 28.5533C40.3625 30.1502 38.9577 30.7505 37.3608 30.3543C36.4482 30.1262 35.7999 29.4658 35.0674 28.7334C33.8908 27.5327 32.558 26.1519 29.5562 26.1519Z" fill="#06B6D4"/>
</g>
<g filter="url(#filter1_d)">
<path d="M78.798 16H81.93V34H78.798V31.408C77.526 33.448 75.582 34.468 72.966 34.468C70.854 34.468 69.162 33.808 67.89 32.488C66.618 31.144 65.982 29.332 65.982 27.052V16H69.114V26.872C69.114 28.336 69.51 29.476 70.302 30.292C71.094 31.084 72.186 31.48 73.578 31.48C75.138 31.48 76.398 31 77.358 30.04C78.318 29.056 78.798 27.556 78.798 25.54V16ZM96.6343 15.532C99.1543 15.532 101.302 16.456 103.078 18.304C104.854 20.128 105.742 22.36 105.742 25C105.742 27.64 104.854 29.884 103.078 31.732C101.302 33.556 99.1543 34.468 96.6343 34.468C93.6583 34.468 91.3903 33.28 89.8303 30.904V41.2H86.6983V16H89.8303V19.096C91.3903 16.72 93.6583 15.532 96.6343 15.532ZM96.2383 31.444C98.0383 31.444 99.5503 30.832 100.774 29.608C101.998 28.36 102.61 26.824 102.61 25C102.61 23.176 101.998 21.652 100.774 20.428C99.5503 19.18 98.0383 18.556 96.2383 18.556C94.4143 18.556 92.8903 19.18 91.6663 20.428C90.4423 21.652 89.8303 23.176 89.8303 25C89.8303 26.824 90.4423 28.36 91.6663 29.608C92.8903 30.832 94.4143 31.444 96.2383 31.444ZM124.384 8.8H127.516V34H124.384V30.904C122.824 33.28 120.556 34.468 117.58 34.468C115.06 34.468 112.912 33.556 111.136 31.732C109.36 29.884 108.472 27.64 108.472 25C108.472 22.36 109.36 20.128 111.136 18.304C112.912 16.456 115.06 15.532 117.58 15.532C120.556 15.532 122.824 16.72 124.384 19.096V8.8ZM117.976 31.444C119.8 31.444 121.324 30.832 122.548 29.608C123.772 28.36 124.384 26.824 124.384 25C124.384 23.176 123.772 21.652 122.548 20.428C121.324 19.18 119.8 18.556 117.976 18.556C116.176 18.556 114.664 19.18 113.44 20.428C112.216 21.652 111.604 23.176 111.604 25C111.604 26.824 112.216 28.36 113.44 29.608C114.664 30.832 116.176 31.444 117.976 31.444ZM135.393 19.024C136.425 16.792 138.297 15.676 141.009 15.676V18.952C139.473 18.88 138.153 19.288 137.049 20.176C135.945 21.064 135.393 22.492 135.393 24.46V34H132.261V16H135.393V19.024ZM157.993 16H161.125V34H157.993V30.904C156.433 33.28 154.165 34.468 151.189 34.468C148.669 34.468 146.521 33.556 144.745 31.732C142.969 29.884 142.081 27.64 142.081 25C142.081 22.36 142.969 20.128 144.745 18.304C146.521 16.456 148.669 15.532 151.189 15.532C154.165 15.532 156.433 16.72 157.993 19.096V16ZM151.585 31.444C153.409 31.444 154.933 30.832 156.157 29.608C157.381 28.36 157.993 26.824 157.993 25C157.993 23.176 157.381 21.652 156.157 20.428C154.933 19.18 153.409 18.556 151.585 18.556C149.785 18.556 148.273 19.18 147.049 20.428C145.825 21.652 145.213 23.176 145.213 25C145.213 26.824 145.825 28.36 147.049 29.608C148.273 30.832 149.785 31.444 151.585 31.444ZM175.122 11.356C171.954 11.092 170.37 12.46 170.37 15.46V16H175.122V19.024H170.37V34H167.238V19.024H164.358V16H167.238V15.46C167.238 13.036 167.91 11.2 169.254 9.952C170.622 8.704 172.578 8.164 175.122 8.332V11.356ZM187.967 19.024H183.179V28.78C183.179 29.668 183.347 30.304 183.683 30.688C184.043 31.048 184.583 31.24 185.303 31.264C186.023 31.264 186.911 31.24 187.967 31.192V34C185.231 34.36 183.227 34.144 181.955 33.352C180.683 32.536 180.047 31.012 180.047 28.78V19.024H176.483V16H180.047V11.896L183.179 10.96V16H187.967V19.024ZM193.496 20.86C193.496 21.556 193.844 22.12 194.54 22.552C195.236 22.96 196.076 23.296 197.06 23.56C198.044 23.8 199.028 24.088 200.012 24.424C200.996 24.736 201.836 25.288 202.532 26.08C203.228 26.848 203.576 27.844 203.576 29.068C203.576 30.7 202.94 32.008 201.668 32.992C200.42 33.976 198.812 34.468 196.844 34.468C195.092 34.468 193.592 34.084 192.344 33.316C191.096 32.548 190.208 31.528 189.68 30.256L192.38 28.708C192.668 29.572 193.208 30.256 194 30.76C194.792 31.264 195.74 31.516 196.844 31.516C197.876 31.516 198.728 31.324 199.4 30.94C200.072 30.532 200.408 29.908 200.408 29.068C200.408 28.372 200.06 27.82 199.364 27.412C198.668 26.98 197.828 26.644 196.844 26.404C195.86 26.14 194.876 25.84 193.892 25.504C192.908 25.168 192.068 24.616 191.372 23.848C190.676 23.08 190.328 22.096 190.328 20.896C190.328 19.336 190.928 18.052 192.128 17.044C193.352 16.036 194.876 15.532 196.7 15.532C198.164 15.532 199.46 15.868 200.588 16.54C201.74 17.188 202.604 18.1 203.18 19.276L200.552 20.752C199.904 19.216 198.62 18.448 196.7 18.448C195.812 18.448 195.056 18.664 194.432 19.096C193.808 19.504 193.496 20.092 193.496 20.86ZM208.877 34.396C208.229 34.396 207.677 34.168 207.221 33.712C206.765 33.256 206.537 32.704 206.537 32.056C206.537 31.408 206.765 30.856 207.221 30.4C207.677 29.944 208.229 29.716 208.877 29.716C209.549 29.716 210.101 29.944 210.533 30.4C210.989 30.856 211.217 31.408 211.217 32.056C211.217 32.704 210.989 33.256 210.533 33.712C210.101 34.168 209.549 34.396 208.877 34.396ZM229.114 16H232.246V34H229.114V30.904C227.554 33.28 225.286 34.468 222.31 34.468C219.79 34.468 217.642 33.556 215.866 31.732C214.09 29.884 213.202 27.64 213.202 25C213.202 22.36 214.09 20.128 215.866 18.304C217.642 16.456 219.79 15.532 222.31 15.532C225.286 15.532 227.554 16.72 229.114 19.096V16ZM222.706 31.444C224.53 31.444 226.054 30.832 227.278 29.608C228.502 28.36 229.114 26.824 229.114 25C229.114 23.176 228.502 21.652 227.278 20.428C226.054 19.18 224.53 18.556 222.706 18.556C220.906 18.556 219.394 19.18 218.17 20.428C216.946 21.652 216.334 23.176 216.334 25C216.334 26.824 216.946 28.36 218.17 29.608C219.394 30.832 220.906 31.444 222.706 31.444ZM246.927 15.532C249.447 15.532 251.595 16.456 253.371 18.304C255.147 20.128 256.035 22.36 256.035 25C256.035 27.64 255.147 29.884 253.371 31.732C251.595 33.556 249.447 34.468 246.927 34.468C243.951 34.468 241.683 33.28 240.123 30.904V41.2H236.991V16H240.123V19.096C241.683 16.72 243.951 15.532 246.927 15.532ZM246.531 31.444C248.331 31.444 249.843 30.832 251.067 29.608C252.291 28.36 252.903 26.824 252.903 25C252.903 23.176 252.291 21.652 251.067 20.428C249.843 19.18 248.331 18.556 246.531 18.556C244.707 18.556 243.183 19.18 241.959 20.428C240.735 21.652 240.123 23.176 240.123 25C240.123 26.824 240.735 28.36 241.959 29.608C243.183 30.832 244.707 31.444 246.531 31.444ZM269.708 15.532C272.228 15.532 274.376 16.456 276.152 18.304C277.928 20.128 278.816 22.36 278.816 25C278.816 27.64 277.928 29.884 276.152 31.732C274.376 33.556 272.228 34.468 269.708 34.468C266.732 34.468 264.464 33.28 262.904 30.904V41.2H259.772V16H262.904V19.096C264.464 16.72 266.732 15.532 269.708 15.532ZM269.312 31.444C271.112 31.444 272.624 30.832 273.848 29.608C275.072 28.36 275.684 26.824 275.684 25C275.684 23.176 275.072 21.652 273.848 20.428C272.624 19.18 271.112 18.556 269.312 18.556C267.488 18.556 265.964 19.18 264.74 20.428C263.516 21.652 262.904 23.176 262.904 25C262.904 26.824 263.516 28.36 264.74 29.608C265.964 30.832 267.488 31.444 269.312 31.444Z" fill="white"/>
</g>
<defs>
<filter id="filter0_d" x="-3.99805" y="-2" width="56" height="56" filterUnits="userSpaceOnUse" color-interpolation-filters="sRGB">
<feFlood flood-opacity="0" result="BackgroundImageFix"/>
<feColorMatrix in="SourceAlpha" type="matrix" values="0 0 0 0 0 0 0 0 0 0 0 0 0 0 0 0 0 0 127 0"/>
<feOffset dy="2"/>
<feGaussianBlur stdDeviation="2"/>
<feColorMatrix type="matrix" values="0 0 0 0 0 0 0 0 0 0 0 0 0 0 0 0 0 0 0.25 0"/>
<feBlend mode="normal" in2="BackgroundImageFix" result="effect1_dropShadow"/>
<feBlend mode="normal" in="SourceGraphic" in2="effect1_dropShadow" result="shape"/>
</filter>
<filter id="filter1_d" x="61.9819" y="6.30225" width="220.835" height="40.8979" filterUnits="userSpaceOnUse" color-interpolation-filters="sRGB">
<feFlood flood-opacity="0" result="BackgroundImageFix"/>
<feColorMatrix in="SourceAlpha" type="matrix" values="0 0 0 0 0 0 0 0 0 0 0 0 0 0 0 0 0 0 127 0"/>
<feOffset dy="2"/>
<feGaussianBlur stdDeviation="2"/>
<feColorMatrix type="matrix" values="0 0 0 0 0 0 0 0 0 0 0 0 0 0 0 0 0 0 0.25 0"/>
<feBlend mode="normal" in2="BackgroundImageFix" result="effect1_dropShadow"/>
<feBlend mode="normal" in="SourceGraphic" in2="effect1_dropShadow" result="shape"/>
</filter>
</defs>
</svg>
