<svg width="49" height="48" viewBox="0 0 49 48" fill="none" xmlns="http://www.w3.org/2000/svg">
    <g clip-path="url(#clip0_1501_4268)" filter="url(#filter0_d_1501_4268)">
        <path d="M8.00122 16.677H14.7877C16.3227 16.677 17.6727 16.984 18.8402 17.598C20.0202 18.198 20.9322 19.0625 21.5747 20.191C22.2307 21.3195 22.5582 22.648 22.5582 24.177C22.5582 25.7055 22.2307 27.034 21.5747 28.162C20.9322 29.291 20.0207 30.162 18.8402 30.777C17.6732 31.377 16.3222 31.677 14.7877 31.677H8.00122V16.677ZM14.5912 27.734C15.5882 27.734 16.3812 27.427 16.9712 26.8125C17.5747 26.184 17.8762 25.3055 17.8762 24.177C17.8762 23.048 17.5747 22.177 16.9712 21.562C16.3812 20.934 15.5877 20.6195 14.5912 20.6195H12.6437V27.734H14.5912ZM23.4767 30.0985V31.677H27.7067V25.077L30.6967 30.327H32.7422L35.7322 24.841L35.7722 31.677H40.0012L39.9617 16.677H36.1462L31.7787 24.6695L27.2932 16.677H23.4767V18.1985C23.5127 18.2585 23.5477 18.3185 23.5817 18.38C24.5267 20.013 24.9987 21.936 24.9987 24.1485C24.9987 26.361 24.5262 28.2835 23.5822 29.9175L23.4767 30.0985Z" fill="#E5EFF5"/>
    </g>
    <defs>
        <filter id="filter0_d_1501_4268" x="4.00122" y="14.25" width="40" height="23.5" filterUnits="userSpaceOnUse" color-interpolation-filters="sRGB">
            <feFlood flood-opacity="0" result="BackgroundImageFix"/>
            <feColorMatrix in="SourceAlpha" type="matrix" values="0 0 0 0 0 0 0 0 0 0 0 0 0 0 0 0 0 0 127 0" result="hardAlpha"/>
            <feOffset dy="2"/>
            <feGaussianBlur stdDeviation="2"/>
            <feColorMatrix type="matrix" values="0 0 0 0 0 0 0 0 0 0 0 0 0 0 0 0 0 0 0.25 0"/>
            <feBlend mode="normal" in2="BackgroundImageFix" result="effect1_dropShadow_1501_4268"/>
            <feBlend mode="normal" in="SourceGraphic" in2="effect1_dropShadow_1501_4268" result="shape"/>
        </filter>
        <clipPath id="clip0_1501_4268">
            <rect width="32" height="15.5" fill="white" transform="translate(8.00122 16.25)"/>
        </clipPath>
    </defs>
</svg>
