<svg width="48" height="49" viewBox="0 0 48 49" fill="none" xmlns="http://www.w3.org/2000/svg">
<g filter="url(#filter0_d)">
<path d="M16.5107 27H29.8485V28H16.5107V27Z" fill="#E535AB"/>
<path d="M18.9001 27.5C18.9001 28.6046 18.0047 29.5 16.9001 29.5C15.7956 29.5 14.9001 28.6046 14.9001 27.5C14.9001 26.3954 15.7956 25.5 16.9001 25.5C18.0047 25.5 18.9001 26.3954 18.9001 27.5Z" fill="#E535AB"/>
<path d="M33.0999 27.5C33.0999 28.6046 32.2044 29.5 31.0999 29.5C29.9953 29.5 29.0999 28.6046 29.0999 27.5C29.0999 26.3954 29.9953 25.5 31.0999 25.5C32.2044 25.5 33.0999 26.3954 33.0999 27.5Z" fill="#E535AB"/>
<path d="M26.0068 27.5C26.0068 28.6046 25.1114 29.5 24.0068 29.5C22.9023 29.5 22.0068 28.6046 22.0068 27.5C22.0068 26.3954 22.9023 25.5 24.0068 25.5C25.1114 25.5 26.0068 26.3954 26.0068 27.5Z" fill="#E535AB"/>
<path d="M36.9844 15.5C37.5148 15.5 38.0235 15.7107 38.3986 16.0858C38.7737 16.4609 38.9844 16.9696 38.9844 17.5V21.5C38.9844 22.0304 39.1951 22.5391 39.5702 22.9142C39.9452 23.2893 40.4539 23.5 40.9844 23.5H41.9844V25.5H40.9844C40.4539 25.5 39.9452 25.7107 39.5702 26.0858C39.1951 26.4609 38.9844 26.9696 38.9844 27.5V31.5C38.9844 32.0304 38.7737 32.5391 38.3986 32.9142C38.0235 33.2893 37.5148 33.5 36.9844 33.5H34.9844V31.5H36.9844V26.5C36.9844 25.9696 37.1951 25.4609 37.5702 25.0858C37.9452 24.7107 38.4539 24.5 38.9844 24.5C38.4539 24.5 37.9452 24.2893 37.5702 23.9142C37.1951 23.5391 36.9844 23.0304 36.9844 22.5V17.5H34.9844V15.5H36.9844Z" fill="#00A8E8"/>
<path d="M9.57016 16.0858C9.94523 15.7107 10.4539 15.5 10.9844 15.5H12.9844V17.5H10.9844V22.5C10.9844 23.0304 10.7737 23.5391 10.3986 23.9142C10.0235 24.2893 9.51481 24.5 8.98438 24.5C9.51481 24.5 10.0235 24.7107 10.3986 25.0858C10.7737 25.4609 10.9844 25.9696 10.9844 26.5V31.5H12.9844V33.5H10.9844C10.4539 33.5 9.94523 33.2893 9.57016 32.9142C9.19509 32.5391 8.98438 32.0304 8.98438 31.5V27.5C8.98438 26.9696 8.77366 26.4609 8.39859 26.0858C8.02352 25.7107 7.51481 25.5 6.98438 25.5H5.98438V23.5H6.98438C7.51481 23.5 8.02352 23.2893 8.39859 22.9142C8.77366 22.5391 8.98438 22.0304 8.98438 21.5V17.5C8.98438 16.9696 9.19509 16.4609 9.57016 16.0858Z" fill="#00A8E8"/>
</g>
<defs>
<filter id="filter0_d" x="-4" y="-1.5" width="56" height="56" filterUnits="userSpaceOnUse" color-interpolation-filters="sRGB">
<feFlood flood-opacity="0" result="BackgroundImageFix"/>
<feColorMatrix in="SourceAlpha" type="matrix" values="0 0 0 0 0 0 0 0 0 0 0 0 0 0 0 0 0 0 127 0"/>
<feOffset dy="2"/>
<feGaussianBlur stdDeviation="2"/>
<feColorMatrix type="matrix" values="0 0 0 0 0 0 0 0 0 0 0 0 0 0 0 0 0 0 0.25 0"/>
<feBlend mode="normal" in2="BackgroundImageFix" result="effect1_dropShadow"/>
<feBlend mode="normal" in="SourceGraphic" in2="effect1_dropShadow" result="shape"/>
</filter>
</defs>
</svg>
