<svg width="49" height="49" viewBox="0 0 49 49" fill="none" xmlns="http://www.w3.org/2000/svg">
<path d="M34.423 20.159L38.4986 8.13867H21.2434L25.3049 20.1241C25.4874 20.1606 25.6672 20.2095 25.8431 20.2704L29.8809 12.1058L33.9069 20.3189C34.0753 20.2544 34.2477 20.2009 34.423 20.159Z" fill="#C63D14"/>
<path d="M35.3936 26.7375C36.7885 26.7375 37.9232 25.6027 37.9232 24.2079C37.9232 22.8131 36.7885 21.6784 35.3936 21.6784C33.9989 21.6784 32.864 22.8131 32.864 24.2079C32.864 25.6027 33.9989 26.7375 35.3936 26.7375Z" fill="#C63D14"/>
<path d="M24.4904 21.6784C25.8852 21.6784 27.0199 22.8131 27.0199 24.2079C27.0199 25.6027 25.8852 26.7375 24.4904 26.7375C23.0958 26.7375 21.9609 25.6027 21.9609 24.2079C21.9609 22.8131 23.0958 21.6784 24.4904 21.6784Z" fill="#C63D14"/>
<path d="M16.0756 24.2319C16.0756 22.8371 14.9409 21.7024 13.546 21.7024C12.1513 21.7024 11.0165 22.8371 11.0165 24.2319C11.0165 25.6267 12.1513 26.7616 13.546 26.7616C14.9409 26.7616 16.0756 25.6267 16.0756 24.2319Z" fill="#C63D14"/>
<path d="M22.9152 38.2762C23.6462 37.913 24.3863 37.5454 25.1353 37.1987C24.9038 36.4505 24.7791 35.6553 24.7791 34.8311C24.7791 30.6145 28.0413 27.1598 32.1795 26.8532C31.5981 26.148 31.2438 25.2488 31.2297 24.2688L28.6548 24.2315C28.642 26.5171 26.7788 28.3723 24.4904 28.3723C24.2817 28.3723 24.0733 28.3566 23.8669 28.3255C23.1885 29.3963 22.3635 30.3983 21.4034 31.304C19.9181 32.7051 18.2438 33.7437 16.4266 34.3908L16.0934 34.5094L15.7789 34.3478C13.4803 33.1669 12.3852 30.6681 13.0815 28.3698C12.7123 28.3286 12.3502 28.2377 12.0053 28.0996C11.8909 28.3395 11.7755 28.5788 11.6591 28.8177C10.975 30.2229 10.2676 31.676 10.006 33.2537C9.72367 34.9566 9.61175 38.0643 12.0352 39.7438C15.3436 42.0368 18.8524 40.2942 22.9152 38.2762Z" fill="#C63D14"/>
<path d="M38.3505 34.5453H37.4933V32.2596C37.4933 31.6253 36.9791 31.1168 36.3505 31.1168H34.0648V30.2596C34.0648 29.8807 33.9143 29.5174 33.6463 29.2495C33.3784 28.9816 33.0151 28.8311 32.6362 28.8311C32.2573 28.8311 31.894 28.9816 31.626 29.2495C31.3581 29.5174 31.2076 29.8807 31.2076 30.2596V31.1168H28.9219C28.6188 31.1168 28.3281 31.2372 28.1138 31.4515C27.8995 31.6658 27.7791 31.9565 27.7791 32.2596V34.4311H28.6362C29.4933 34.4311 30.1791 35.1168 30.1791 35.9739C30.1791 36.8311 29.4933 37.5168 28.6362 37.5168H27.7791V39.6882C27.7791 39.9913 27.8995 40.282 28.1138 40.4963C28.3281 40.7106 28.6188 40.8311 28.9219 40.8311H31.0933V39.9739C31.0933 39.1168 31.7791 38.4311 32.6362 38.4311C33.4933 38.4311 34.1791 39.1168 34.1791 39.9739V40.8311H36.3505C36.6536 40.8311 36.9443 40.7106 37.1586 40.4963C37.3729 40.282 37.4933 39.9913 37.4933 39.6882V37.4025H38.3505C38.7294 37.4025 39.0927 37.252 39.3606 36.9841C39.6285 36.7162 39.7791 36.3528 39.7791 35.9739C39.7791 35.595 39.6285 35.2317 39.3606 34.9638C39.0927 34.6959 38.7294 34.5453 38.3505 34.5453V34.5453Z" fill="#7EB77F"/>
</svg>
