<svg width="48" height="49" viewBox="0 0 48 49" fill="none" xmlns="http://www.w3.org/2000/svg">
<g filter="url(#filter0_d)">
<path d="M39.405 34.25H38.28V31.25C38.28 30.4175 37.605 29.75 36.78 29.75H33.78V28.625C33.78 28.1277 33.5825 27.6508 33.2309 27.2992C32.8792 26.9475 32.4023 26.75 31.905 26.75C31.4077 26.75 30.9308 26.9475 30.5792 27.2992C30.2276 27.6508 30.03 28.1277 30.03 28.625V29.75H27.03C26.6322 29.75 26.2507 29.908 25.9694 30.1893C25.6881 30.4706 25.53 30.8522 25.53 31.25V34.1H26.655C27.78 34.1 28.68 35 28.68 36.125C28.68 37.25 27.78 38.15 26.655 38.15H25.53V41C25.53 41.3978 25.6881 41.7794 25.9694 42.0607C26.2507 42.342 26.6322 42.5 27.03 42.5H29.88V41.375C29.88 40.25 30.78 39.35 31.905 39.35C33.03 39.35 33.93 40.25 33.93 41.375V42.5H36.78C37.1779 42.5 37.5594 42.342 37.8407 42.0607C38.122 41.7794 38.28 41.3978 38.28 41V38H39.405C39.9023 38 40.3792 37.8025 40.7309 37.4508C41.0825 37.0992 41.28 36.6223 41.28 36.125C41.28 35.6277 41.0825 35.1508 40.7309 34.7992C40.3792 34.4475 39.9023 34.25 39.405 34.25V34.25Z" fill="#7EB77F"/>
<path d="M32.9223 20.1585L36.9978 8.13818H19.7426L23.8042 20.1236C23.9867 20.1601 24.1665 20.209 24.3424 20.2699L28.3801 12.1053L32.4062 20.3185C32.5745 20.2539 32.7469 20.2004 32.9223 20.1585Z" fill="#C63D14"/>
<path d="M34.6263 26.6286C35.6646 26.3135 36.4225 25.3473 36.4225 24.2074C36.4225 22.8126 35.2877 21.6779 33.8928 21.6779C32.4981 21.6779 31.3633 22.8126 31.3633 24.2074C31.3633 24.5845 31.4462 24.9425 31.5948 25.2643C31.6975 25.2548 31.801 25.25 31.905 25.25C32.8001 25.25 33.6586 25.6056 34.2915 26.2385C34.4136 26.3606 34.5254 26.4911 34.6263 26.6286Z" fill="#C63D14"/>
<path d="M30.0479 25.8069C29.8496 25.3319 29.7368 24.8126 29.729 24.2683L27.1541 24.231C27.1413 26.5166 25.2781 28.3718 22.9897 28.3718C22.781 28.3718 22.5725 28.3562 22.3661 28.325C21.6877 29.3958 20.8627 30.3978 19.9026 31.3035C18.4174 32.7046 16.7431 33.7432 14.9259 34.3903L14.5927 34.509L14.2782 34.3473C11.9796 33.1664 10.8845 30.6676 11.5808 28.3693C11.2115 28.3281 10.8495 28.2372 10.5046 28.0992C10.3902 28.339 10.2748 28.5783 10.1584 28.8172C9.47427 30.2224 8.76689 31.6755 8.50528 33.2532C8.22294 34.9561 8.11102 38.0638 10.5345 39.7434C13.8428 42.0363 17.3516 40.2937 21.4144 38.2757C22.2739 37.8488 23.1458 37.4157 24.03 37.0176V35.6V31.25C24.03 30.4544 24.3461 29.6913 24.9087 29.1287C25.4713 28.5661 26.2344 28.25 27.03 28.25H28.5509C28.6355 27.4929 28.9746 26.7824 29.5185 26.2385C29.6812 26.0759 29.8587 25.9316 30.0479 25.8069Z" fill="#C63D14"/>
<path d="M22.9897 21.6779C24.3845 21.6779 25.5192 22.8126 25.5192 24.2074C25.5192 25.6022 24.3845 26.737 22.9897 26.737C21.595 26.737 20.4602 25.6022 20.4602 24.2074C20.4602 22.8126 21.595 21.6779 22.9897 21.6779Z" fill="#C63D14"/>
<path d="M14.5749 24.2314C14.5749 22.8366 13.4402 21.7019 12.0452 21.7019C10.6506 21.7019 9.51573 22.8366 9.51573 24.2314C9.51573 25.6262 10.6506 26.7611 12.0452 26.7611C13.4402 26.7611 14.5749 25.6262 14.5749 24.2314Z" fill="#C63D14"/>
<path d="M39.405 34.25H38.28V31.25C38.28 30.4175 37.605 29.75 36.78 29.75H33.78V28.625C33.78 28.1277 33.5825 27.6508 33.2309 27.2992C32.8792 26.9475 32.4023 26.75 31.905 26.75C31.4077 26.75 30.9308 26.9475 30.5792 27.2992C30.2276 27.6508 30.03 28.1277 30.03 28.625V29.75H27.03C26.6322 29.75 26.2507 29.908 25.9694 30.1893C25.6881 30.4706 25.53 30.8522 25.53 31.25V34.1H26.655C27.78 34.1 28.68 35 28.68 36.125C28.68 37.25 27.78 38.15 26.655 38.15H25.53V41C25.53 41.3978 25.6881 41.7794 25.9694 42.0607C26.2507 42.342 26.6322 42.5 27.03 42.5H29.88V41.375C29.88 40.25 30.78 39.35 31.905 39.35C33.03 39.35 33.93 40.25 33.93 41.375V42.5H36.78C37.1779 42.5 37.5594 42.342 37.8407 42.0607C38.122 41.7794 38.28 41.3978 38.28 41V38H39.405C39.9023 38 40.3792 37.8025 40.7309 37.4508C41.0825 37.0992 41.28 36.6223 41.28 36.125C41.28 35.6277 41.0825 35.1508 40.7309 34.7992C40.3792 34.4475 39.9023 34.25 39.405 34.25V34.25Z" fill="#7EB77F"/>
</g>
<defs>
<filter id="filter0_d" x="-4" y="-1.5" width="56" height="56" filterUnits="userSpaceOnUse" color-interpolation-filters="sRGB">
<feFlood flood-opacity="0" result="BackgroundImageFix"/>
<feColorMatrix in="SourceAlpha" type="matrix" values="0 0 0 0 0 0 0 0 0 0 0 0 0 0 0 0 0 0 127 0"/>
<feOffset dy="2"/>
<feGaussianBlur stdDeviation="2"/>
<feColorMatrix type="matrix" values="0 0 0 0 0 0 0 0 0 0 0 0 0 0 0 0 0 0 0.25 0"/>
<feBlend mode="normal" in2="BackgroundImageFix" result="effect1_dropShadow"/>
<feBlend mode="normal" in="SourceGraphic" in2="effect1_dropShadow" result="shape"/>
</filter>
</defs>
</svg>
