<svg width="48" height="48" viewBox="0 0 48 48" fill="none" xmlns="http://www.w3.org/2000/svg">
    <g filter="url(#filter0_d_805_4179)">
        <path fill-rule="evenodd" clip-rule="evenodd" d="M11.971 31.2959C11.8722 31.2982 11.7746 31.2741 11.6884 31.226C11.6021 31.1779 11.5303 31.1076 11.4803 31.0224C11.4304 30.9372 11.4041 30.8402 11.4043 30.7414C11.4045 30.6427 11.4311 30.5457 11.4814 30.4607L12.3742 28.8607C12.3742 28.8607 12.3742 28.8895 13.7246 26.4447C14.7485 24.7103 15.7085 22.5247 15.7085 19.9648V16.512C15.7085 12.976 18.5885 8 24.2237 8C27.3853 8 29.6637 9.43679 31.0685 11.3664C31.1088 11.3651 31.1487 11.3751 31.1837 11.3952L34.2685 12.256C34.4053 12.293 34.5301 12.3651 34.6305 12.4651C34.731 12.565 34.8038 12.6894 34.8415 12.826C34.8793 12.9627 34.8809 13.1068 34.846 13.2441C34.8112 13.3815 34.7412 13.5075 34.6429 13.6096L32.7453 15.5296C32.7741 15.8752 32.8029 16.1888 32.8029 16.5344V19.9584C32.8029 22.3455 33.6093 24.3871 34.4989 26.0383L35.7085 28.6847C35.7085 28.6847 35.7085 28.6559 36.5405 30.4671C36.5818 30.5535 36.6005 30.649 36.5946 30.7447C36.5888 30.8403 36.5587 30.9328 36.5071 31.0136C36.4555 31.0943 36.3842 31.1605 36.2999 31.206C36.2156 31.2515 36.1211 31.2747 36.0253 31.2735L11.971 31.2959V31.2959ZM17.4365 27.8399H18.1533C19.7085 27.8399 29.6733 26.4031 29.6733 17.1712C29.6733 14.7264 27.8621 11.7056 24.2109 11.7056C20.5597 11.7056 18.7453 14.9056 18.7453 17.1712V19.3856C18.7453 21.0239 18.7165 22.7519 17.9709 24.7359C17.6829 25.4527 17.2509 26.3359 16.9341 26.9759C16.8874 27.0643 16.8638 27.1631 16.8658 27.2631C16.8678 27.3631 16.8953 27.4609 16.9455 27.5474C16.9958 27.6338 17.0672 27.706 17.1531 27.7572C17.2391 27.8084 17.3366 27.8369 17.4365 27.8399V27.8399ZM17.1165 34.7455C17.0317 34.7433 16.9476 34.7623 16.872 34.8008C16.7964 34.8394 16.7317 34.8962 16.6836 34.9662C16.6356 35.0362 16.6058 35.117 16.5971 35.2014C16.5883 35.2859 16.6007 35.3711 16.6333 35.4495V35.4815C17.0398 36.3746 17.6221 37.1767 18.3453 37.8399C19.0966 38.5326 19.973 39.0756 20.9277 39.4399C22.8922 40.1867 25.0624 40.1867 27.0269 39.4399C27.9822 39.0748 28.8595 38.5319 29.6125 37.8399C30.3346 37.1757 30.9167 36.3739 31.3245 35.4815V35.4495C31.3581 35.3712 31.3714 35.2856 31.3631 35.2008C31.3548 35.116 31.3251 35.0346 31.2769 34.9643C31.2286 34.8941 31.1634 34.8371 31.0872 34.7989C31.0111 34.7606 30.9265 34.7422 30.8413 34.7455H28.4541C28.3542 34.7487 28.2564 34.7752 28.1686 34.823C28.0808 34.8708 28.0054 34.9385 27.9485 35.0207C27.7691 35.2744 27.5632 35.5083 27.3341 35.7183C26.8886 36.1325 26.3684 36.4583 25.8013 36.6783C24.6368 37.1219 23.3498 37.1219 22.1853 36.6783C21.6182 36.4583 21.098 36.1325 20.6525 35.7183C20.4243 35.5074 20.2185 35.2737 20.0381 35.0207C19.9841 34.9394 19.9115 34.8721 19.8264 34.8242C19.7413 34.7764 19.6461 34.7494 19.5485 34.7455H17.1165V34.7455Z" fill="#E5EFF5"/>
    </g>
    <defs>
        <filter id="filter0_d_805_4179" x="-4" y="-2" width="56" height="56" filterUnits="userSpaceOnUse" color-interpolation-filters="sRGB">
            <feFlood flood-opacity="0" result="BackgroundImageFix"/>
            <feColorMatrix in="SourceAlpha" type="matrix" values="0 0 0 0 0 0 0 0 0 0 0 0 0 0 0 0 0 0 127 0" result="hardAlpha"/>
            <feOffset dy="2"/>
            <feGaussianBlur stdDeviation="2"/>
            <feColorMatrix type="matrix" values="0 0 0 0 0 0 0 0 0 0 0 0 0 0 0 0 0 0 0.25 0"/>
            <feBlend mode="normal" in2="BackgroundImageFix" result="effect1_dropShadow_805_4179"/>
            <feBlend mode="normal" in="SourceGraphic" in2="effect1_dropShadow_805_4179" result="shape"/>
        </filter>
    </defs>
</svg>
