<svg width="48" height="48" viewBox="0 0 48 48" fill="none" xmlns="http://www.w3.org/2000/svg">
<g filter="url(#filter0_d)">
<g clip-path="url(#clip0)">
<circle cx="34.5" cy="34.5" r="6" fill="white"/>
<path d="M34.107 28.5032C34.0812 28.5056 33.9991 28.5138 33.9252 28.5196C32.2208 28.6733 30.6243 29.5928 29.6132 31.0061C29.0501 31.7919 28.69 32.6833 28.554 33.6274C28.5059 33.957 28.5 34.0543 28.5 34.5012C28.5 34.948 28.5059 35.0454 28.554 35.3749C28.8801 37.628 30.4836 39.521 32.6584 40.2223C33.0478 40.3478 33.4584 40.4334 33.9252 40.485C34.107 40.505 34.893 40.505 35.0748 40.485C35.8806 40.3959 36.5633 40.1965 37.2367 39.8529C37.3399 39.8001 37.3598 39.786 37.3457 39.7743C37.3364 39.7673 36.8965 39.1773 36.3686 38.4642L35.4091 37.1682L34.2067 35.389C33.5452 34.4109 33.0009 33.611 32.9962 33.611C32.9915 33.6098 32.9868 34.4003 32.9845 35.3656C32.9809 37.0556 32.9798 37.1237 32.9587 37.1635C32.9282 37.221 32.9047 37.2445 32.8554 37.2703C32.8179 37.289 32.785 37.2926 32.6079 37.2926H32.405L32.351 37.2585C32.3158 37.2363 32.29 37.2069 32.2724 37.1729L32.2478 37.1201L32.2501 34.7686L32.2537 32.4159L32.29 32.3701C32.3088 32.3455 32.3487 32.3138 32.3768 32.2986C32.4249 32.2751 32.4437 32.2728 32.6466 32.2728C32.8859 32.2728 32.9258 32.2821 32.988 32.3502C33.0056 32.3689 33.6566 33.3494 34.4355 34.5305C35.2144 35.7116 36.2795 37.3242 36.8026 38.1159L37.7528 39.555L37.8009 39.5233C38.2267 39.2465 38.6771 38.8524 39.0337 38.4419C39.7927 37.5705 40.2818 36.5079 40.446 35.3749C40.4941 35.0454 40.5 34.948 40.5 34.5012C40.5 34.0543 40.4941 33.957 40.446 33.6274C40.1199 31.3744 38.5164 29.4814 36.3416 28.78C35.9581 28.6557 35.5499 28.5701 35.0924 28.5185C34.9798 28.5067 34.2044 28.4938 34.107 28.5032ZM36.5633 32.132C36.6196 32.1602 36.6654 32.2141 36.6818 32.2704C36.6912 32.3009 36.6935 32.953 36.6912 34.4226L36.6877 36.5314L36.3158 35.9614L35.9428 35.3914V33.8585C35.9428 32.8674 35.9475 32.3103 35.9545 32.2833C35.9733 32.2176 36.0144 32.166 36.0707 32.1355C36.1188 32.1109 36.1364 32.1086 36.3205 32.1086C36.4941 32.1086 36.5246 32.1109 36.5633 32.132Z" fill="black"/>
</g>
<path fill-rule="evenodd" clip-rule="evenodd" d="M27.6522 33.0443H27.0001C27.0001 32.6906 26.8596 32.3515 26.6096 32.1015C26.3595 31.8514 26.0204 31.7109 25.6667 31.7109H24.3334H23.0001H21.6667H20.3334C19.9798 31.7109 19.6407 31.8514 19.3906 32.1015C19.1406 32.3515 19.0001 32.6906 19.0001 33.0443H9.66675V35.7109H19.0001C19.0001 36.0646 19.1406 36.4037 19.3906 36.6537C19.6407 36.9038 19.9798 37.0443 20.3334 37.0443H25.6667C26.0204 37.0443 26.3595 36.9038 26.6096 36.6537C26.8596 36.4037 27.0001 36.0646 27.0001 35.7109H27.6043C27.5359 35.3182 27.5002 34.9142 27.5002 34.502C27.5002 34.0021 27.5526 33.5145 27.6522 33.0443Z" fill="#E5EFF5"/>
<path fill-rule="evenodd" clip-rule="evenodd" d="M12.3333 29.0436H21.6667H24.3333H30.1167C31.3164 28.0788 32.8409 27.5015 34.5002 27.5015C34.6683 27.5015 34.8349 27.5074 35 27.519V22.377C35 22.0233 34.8595 21.6842 34.6095 21.4341C34.3594 21.1841 34.0203 21.0436 33.6667 21.0436H12.3333C11.9797 21.0436 11.6406 21.1841 11.3905 21.4341C11.1405 21.6842 11 22.0233 11 22.377V27.7103C11 28.0639 11.1405 28.403 11.3905 28.6531C11.6406 28.9031 11.9797 29.0436 12.3333 29.0436ZM33.6667 10.377H12.3333C11.9797 10.377 11.6406 10.5174 11.3905 10.7675C11.1405 11.0175 11 11.3567 11 11.7103V17.0436C11 17.3972 11.1405 17.7364 11.3905 17.9864C11.6406 18.2365 11.9797 18.377 12.3333 18.377H33.6667C34.0203 18.377 34.3594 18.2365 34.6095 17.9864C34.8595 17.7364 35 17.3972 35 17.0436V11.7103C35 11.3567 34.8595 11.0175 34.6095 10.7675C34.3594 10.5174 34.0203 10.377 33.6667 10.377ZM20.3333 15.7103H19V13.0436H20.3333V15.7103ZM20.3333 26.377H19V23.7103H20.3333V26.377ZM13.6667 15.7103V13.0436H16.3333V15.7103H13.6667ZM13.6667 26.377V23.7103H16.3333V26.377H13.6667Z" fill="#E5EFF5"/>
</g>
<defs>
<filter id="filter0_d" x="-4" y="-2" width="56" height="56" filterUnits="userSpaceOnUse" color-interpolation-filters="sRGB">
<feFlood flood-opacity="0" result="BackgroundImageFix"/>
<feColorMatrix in="SourceAlpha" type="matrix" values="0 0 0 0 0 0 0 0 0 0 0 0 0 0 0 0 0 0 127 0" result="hardAlpha"/>
<feOffset dy="2"/>
<feGaussianBlur stdDeviation="2"/>
<feColorMatrix type="matrix" values="0 0 0 0 0 0 0 0 0 0 0 0 0 0 0 0 0 0 0.25 0"/>
<feBlend mode="normal" in2="BackgroundImageFix" result="effect1_dropShadow"/>
<feBlend mode="normal" in="SourceGraphic" in2="effect1_dropShadow" result="shape"/>
</filter>
<clipPath id="clip0">
<rect width="12" height="12" fill="white" transform="translate(28.5 28.5)"/>
</clipPath>
</defs>
</svg>
