<svg width="48" height="48" viewBox="0 0 48 48" fill="none" xmlns="http://www.w3.org/2000/svg">
<g filter="url(#filter0_d)">
<path fill-rule="evenodd" clip-rule="evenodd" d="M24 26.087C28.9946 26.087 33.0435 22.0381 33.0435 17.0435C33.0435 12.0489 28.9946 8 24 8C19.0055 8 14.9565 12.0489 14.9565 17.0435C14.9565 22.0381 19.0055 26.087 24 26.087ZM24.0006 22.7477C27.151 22.7477 29.7049 20.1938 29.7049 17.0434C29.7049 13.8929 27.151 11.339 24.0006 11.339C20.8502 11.339 18.2962 13.8929 18.2962 17.0434C18.2962 20.1938 20.8502 22.7477 24.0006 22.7477Z" fill="#E5EFF5"/>
<path fill-rule="evenodd" clip-rule="evenodd" d="M30.7588 28.5837C28.7689 27.438 26.461 26.7827 24.0001 26.7827C16.6245 26.7827 10.6237 32.669 10.4392 40.0001H13.7803C13.9637 34.5135 18.4693 30.1219 24.0006 30.1219C25.5671 30.1219 27.0514 30.4741 28.3784 31.1037C28.949 30.0778 29.77 29.2102 30.7588 28.5837Z" fill="#7EB77F"/>
<g clip-path="url(#clip0)">
<circle cx="34.5" cy="34.5" r="6" fill="white"/>
<path d="M34.107 28.5032C34.0812 28.5056 33.9991 28.5138 33.9252 28.5196C32.2208 28.6733 30.6243 29.5928 29.6132 31.0061C29.0501 31.7919 28.69 32.6833 28.554 33.6274C28.5059 33.957 28.5 34.0543 28.5 34.5012C28.5 34.948 28.5059 35.0454 28.554 35.3749C28.8801 37.628 30.4836 39.521 32.6584 40.2223C33.0478 40.3478 33.4584 40.4334 33.9252 40.485C34.107 40.505 34.893 40.505 35.0748 40.485C35.8806 40.3959 36.5633 40.1965 37.2367 39.8529C37.3399 39.8001 37.3598 39.786 37.3457 39.7743C37.3364 39.7673 36.8965 39.1773 36.3686 38.4642L35.4091 37.1682L34.2067 35.389C33.5452 34.4109 33.0009 33.611 32.9962 33.611C32.9915 33.6098 32.9868 34.4003 32.9845 35.3656C32.9809 37.0556 32.9798 37.1237 32.9587 37.1635C32.9282 37.221 32.9047 37.2445 32.8554 37.2703C32.8179 37.289 32.785 37.2926 32.6079 37.2926H32.405L32.351 37.2585C32.3158 37.2363 32.29 37.2069 32.2724 37.1729L32.2478 37.1201L32.2501 34.7686L32.2537 32.4159L32.29 32.3701C32.3088 32.3455 32.3487 32.3138 32.3768 32.2986C32.4249 32.2751 32.4437 32.2728 32.6466 32.2728C32.8859 32.2728 32.9258 32.2821 32.988 32.3502C33.0056 32.3689 33.6566 33.3494 34.4355 34.5305C35.2144 35.7116 36.2795 37.3242 36.8026 38.1159L37.7528 39.555L37.8009 39.5233C38.2267 39.2465 38.6771 38.8524 39.0337 38.4419C39.7927 37.5705 40.2818 36.5079 40.446 35.3749C40.4941 35.0454 40.5 34.948 40.5 34.5012C40.5 34.0543 40.4941 33.957 40.446 33.6274C40.1199 31.3744 38.5164 29.4814 36.3416 28.78C35.9581 28.6557 35.5499 28.5701 35.0924 28.5185C34.9798 28.5067 34.2044 28.4938 34.107 28.5032ZM36.5633 32.132C36.6196 32.1602 36.6654 32.2141 36.6818 32.2704C36.6912 32.3009 36.6935 32.953 36.6912 34.4226L36.6877 36.5314L36.3158 35.9614L35.9428 35.3914V33.8585C35.9428 32.8674 35.9475 32.3103 35.9545 32.2833C35.9733 32.2176 36.0144 32.166 36.0707 32.1355C36.1188 32.1109 36.1364 32.1086 36.3205 32.1086C36.4941 32.1086 36.5246 32.1109 36.5633 32.132Z" fill="black"/>
</g>
</g>
<defs>
<filter id="filter0_d" x="-4" y="-2" width="56" height="56" filterUnits="userSpaceOnUse" color-interpolation-filters="sRGB">
<feFlood flood-opacity="0" result="BackgroundImageFix"/>
<feColorMatrix in="SourceAlpha" type="matrix" values="0 0 0 0 0 0 0 0 0 0 0 0 0 0 0 0 0 0 127 0"/>
<feOffset dy="2"/>
<feGaussianBlur stdDeviation="2"/>
<feColorMatrix type="matrix" values="0 0 0 0 0 0 0 0 0 0 0 0 0 0 0 0 0 0 0.25 0"/>
<feBlend mode="normal" in2="BackgroundImageFix" result="effect1_dropShadow"/>
<feBlend mode="normal" in="SourceGraphic" in2="effect1_dropShadow" result="shape"/>
</filter>
<clipPath id="clip0">
<rect width="12" height="12" fill="white" transform="translate(28.5 28.5)"/>
</clipPath>
</defs>
</svg>
