<svg width="48" height="48" viewBox="0 0 48 48" fill="none" xmlns="http://www.w3.org/2000/svg">
<g filter="url(#filter0_d)">
<path d="M24 36C21.2152 36 18.5445 34.8938 16.5754 32.9246C14.6062 30.9555 13.5 28.2848 13.5 25.5C13.5 22.7152 14.6062 20.0445 16.5754 18.0754C18.5445 16.1062 21.2152 15 24 15C26.7848 15 29.4555 16.1062 31.4246 18.0754C33.3938 20.0445 34.5 22.7152 34.5 25.5C34.5 28.2848 33.3938 30.9555 31.4246 32.9246C29.4555 34.8938 26.7848 36 24 36ZM34.545 17.085L36.675 14.955C36 14.19 35.325 13.5 34.56 12.84L32.43 15C30.105 13.11 27.18 12 24 12C20.4196 12 16.9858 13.4223 14.4541 15.9541C11.9223 18.4858 10.5 21.9196 10.5 25.5C10.5 29.0804 11.9223 32.5142 14.4541 35.0459C16.9858 37.5777 20.4196 39 24 39C31.5 39 37.5 32.955 37.5 25.5C37.5 22.32 36.39 19.395 34.545 17.085Z" fill="#E5EFF5"/>
<path d="M28.5 7.5H19.5V10.5H28.5V7.5Z" fill="#00A8E8"/>
<path d="M22.5 27H25.5V18H22.5V27Z" fill="#00A8E8"/>
</g>
<defs>
<filter id="filter0_d" x="2" y="4" width="44" height="44" filterUnits="userSpaceOnUse" color-interpolation-filters="sRGB">
<feFlood flood-opacity="0" result="BackgroundImageFix"/>
<feColorMatrix in="SourceAlpha" type="matrix" values="0 0 0 0 0 0 0 0 0 0 0 0 0 0 0 0 0 0 127 0"/>
<feOffset dy="2"/>
<feGaussianBlur stdDeviation="2"/>
<feColorMatrix type="matrix" values="0 0 0 0 0 0 0 0 0 0 0 0 0 0 0 0 0 0 0.25 0"/>
<feBlend mode="normal" in2="BackgroundImageFix" result="effect1_dropShadow"/>
<feBlend mode="normal" in="SourceGraphic" in2="effect1_dropShadow" result="shape"/>
</filter>
</defs>
</svg>
