<svg width="48" height="49" viewBox="0 0 48 49" fill="none" xmlns="http://www.w3.org/2000/svg">
<g filter="url(#filter0_d)">
<path fill-rule="evenodd" clip-rule="evenodd" d="M24 26.587C28.9946 26.587 33.0435 22.5381 33.0435 17.5435C33.0435 12.5489 28.9946 8.5 24 8.5C19.0055 8.5 14.9565 12.5489 14.9565 17.5435C14.9565 22.5381 19.0055 26.587 24 26.587ZM24.0006 23.2477C27.151 23.2477 29.7049 20.6938 29.7049 17.5434C29.7049 14.3929 27.151 11.839 24.0006 11.839C20.8502 11.839 18.2962 14.3929 18.2962 17.5434C18.2962 20.6938 20.8502 23.2477 24.0006 23.2477Z" fill="#E5EFF5"/>
<path fill-rule="evenodd" clip-rule="evenodd" d="M30.7588 29.0837C28.7689 27.938 26.461 27.2827 24.0001 27.2827C16.6245 27.2827 10.6237 33.169 10.4392 40.5001H13.7803C13.9637 35.0135 18.4693 30.6219 24.0006 30.6219C25.5671 30.6219 27.0514 30.9741 28.3784 31.6037C28.949 30.5778 29.77 29.7102 30.7588 29.0837Z" fill="#D72323"/>
<g clip-path="url(#clip0)">
<circle cx="34.5" cy="35" r="6" fill="white"/>
<path d="M34.107 29.0032C34.0812 29.0056 33.9991 29.0138 33.9252 29.0196C32.2208 29.1733 30.6243 30.0928 29.6132 31.5061C29.0501 32.2919 28.69 33.1833 28.554 34.1274C28.5059 34.457 28.5 34.5543 28.5 35.0012C28.5 35.448 28.5059 35.5454 28.554 35.8749C28.8801 38.128 30.4836 40.021 32.6584 40.7223C33.0478 40.8478 33.4584 40.9334 33.9252 40.985C34.107 41.005 34.893 41.005 35.0748 40.985C35.8806 40.8959 36.5633 40.6965 37.2367 40.3529C37.3399 40.3001 37.3598 40.286 37.3457 40.2743C37.3364 40.2673 36.8965 39.6773 36.3686 38.9642L35.4091 37.6682L34.2067 35.889C33.5452 34.9109 33.0009 34.111 32.9962 34.111C32.9915 34.1098 32.9868 34.9003 32.9845 35.8656C32.9809 37.5556 32.9798 37.6237 32.9587 37.6635C32.9282 37.721 32.9047 37.7445 32.8554 37.7703C32.8179 37.789 32.785 37.7926 32.6079 37.7926H32.405L32.351 37.7585C32.3158 37.7363 32.29 37.7069 32.2724 37.6729L32.2478 37.6201L32.2501 35.2686L32.2537 32.9159L32.29 32.8701C32.3088 32.8455 32.3487 32.8138 32.3768 32.7986C32.4249 32.7751 32.4437 32.7728 32.6466 32.7728C32.8859 32.7728 32.9258 32.7821 32.988 32.8502C33.0056 32.8689 33.6566 33.8494 34.4355 35.0305C35.2144 36.2116 36.2795 37.8242 36.8026 38.6159L37.7528 40.055L37.8009 40.0233C38.2267 39.7465 38.6771 39.3524 39.0337 38.9419C39.7927 38.0705 40.2818 37.0079 40.446 35.8749C40.4941 35.5454 40.5 35.448 40.5 35.0012C40.5 34.5543 40.4941 34.457 40.446 34.1274C40.1199 31.8744 38.5164 29.9814 36.3416 29.28C35.9581 29.1557 35.5499 29.0701 35.0924 29.0185C34.9798 29.0067 34.2044 28.9938 34.107 29.0032ZM36.5633 32.632C36.6196 32.6602 36.6654 32.7141 36.6818 32.7704C36.6912 32.8009 36.6935 33.453 36.6912 34.9226L36.6877 37.0314L36.3158 36.4614L35.9428 35.8914V34.3585C35.9428 33.3674 35.9475 32.8103 35.9545 32.7833C35.9733 32.7176 36.0144 32.666 36.0707 32.6355C36.1188 32.6109 36.1364 32.6086 36.3205 32.6086C36.4941 32.6086 36.5246 32.6109 36.5633 32.632Z" fill="black"/>
</g>
</g>
<defs>
<filter id="filter0_d" x="-4" y="-1.5" width="56" height="56" filterUnits="userSpaceOnUse" color-interpolation-filters="sRGB">
<feFlood flood-opacity="0" result="BackgroundImageFix"/>
<feColorMatrix in="SourceAlpha" type="matrix" values="0 0 0 0 0 0 0 0 0 0 0 0 0 0 0 0 0 0 127 0"/>
<feOffset dy="2"/>
<feGaussianBlur stdDeviation="2"/>
<feColorMatrix type="matrix" values="0 0 0 0 0 0 0 0 0 0 0 0 0 0 0 0 0 0 0.25 0"/>
<feBlend mode="normal" in2="BackgroundImageFix" result="effect1_dropShadow"/>
<feBlend mode="normal" in="SourceGraphic" in2="effect1_dropShadow" result="shape"/>
</filter>
<clipPath id="clip0">
<rect width="12" height="12" fill="white" transform="translate(28.5 29)"/>
</clipPath>
</defs>
</svg>
