<svg width="49" height="48" viewBox="0 0 49 48" fill="none" xmlns="http://www.w3.org/2000/svg">
<g filter="url(#filter0_d)">
<path d="M14.3995 41.6612L20.8902 35.1705C20.2839 35.01 19.6955 34.7425 19.1605 34.368L11.8852 41.6612H14.3995ZM6.83887 41.6612H9.35312L17.8588 33.1733L15.3267 30.6591L6.83887 39.1469V41.6612ZM6.83887 36.6148L14.132 29.3395C13.7575 28.8046 13.4901 28.234 13.3296 27.6099L6.83887 34.1006V36.6148Z" fill="#F1C40F"/>
<path d="M26.6854 42.0001L23.7788 35.1706C26.5784 34.1363 29.1996 32.7455 31.6247 31.1228L26.6854 42.0001ZM13.3295 24.7212L6.5 21.8147L17.3773 16.8753C15.7546 19.3004 14.3637 21.9217 13.3295 24.7212ZM41.8066 6.69348C41.8066 6.69348 32.9799 2.91139 22.8873 13.0059C18.9821 16.911 16.6462 21.2084 15.1305 24.9709C14.6312 26.3083 14.97 27.7704 15.9508 28.769L19.7489 32.5493C20.7296 33.5479 22.1918 33.8689 23.5292 33.3696C27.3452 31.9074 31.5891 29.5179 35.4942 25.6128C45.5869 15.5201 41.8066 6.69348 41.8066 6.69348ZM29.1996 19.3004C27.8088 17.9096 27.8088 15.6449 29.1996 14.2541C30.5905 12.8632 32.8551 12.8632 34.246 14.2541C35.619 15.6449 35.6369 17.9096 34.246 19.3004C32.8551 20.6913 30.5905 20.6913 29.1996 19.3004Z" fill="#E5EFF5"/>
</g>
<defs>
<filter id="filter0_d" x="-3.5" y="-2" width="56" height="56" filterUnits="userSpaceOnUse" color-interpolation-filters="sRGB">
<feFlood flood-opacity="0" result="BackgroundImageFix"/>
<feColorMatrix in="SourceAlpha" type="matrix" values="0 0 0 0 0 0 0 0 0 0 0 0 0 0 0 0 0 0 127 0"/>
<feOffset dy="2"/>
<feGaussianBlur stdDeviation="2"/>
<feColorMatrix type="matrix" values="0 0 0 0 0 0 0 0 0 0 0 0 0 0 0 0 0 0 0.25 0"/>
<feBlend mode="normal" in2="BackgroundImageFix" result="effect1_dropShadow"/>
<feBlend mode="normal" in="SourceGraphic" in2="effect1_dropShadow" result="shape"/>
</filter>
</defs>
</svg>
