<svg width="48" height="48" viewBox="0 0 48 48" fill="none" xmlns="http://www.w3.org/2000/svg">
<g filter="url(#filter0_d)">
<path d="M22.5 30H18V27H22.5V30ZM30 30H25.5V27H30V30ZM10.5 27H15V30H10.5V27ZM37.5 30H33V27H37.5V30Z" fill="#D72323"/>
<path d="M33 36H15V33H12V36C12 36.7957 12.3161 37.5587 12.8787 38.1213C13.4413 38.6839 14.2044 39 15 39H33C33.7957 39 34.5587 38.6839 35.1213 38.1213C35.6839 37.5587 36 36.7957 36 36V33H33V36ZM27 9H15C14.2044 9 13.4413 9.31607 12.8787 9.87868C12.3161 10.4413 12 11.2044 12 12V24H15V12H27V18H33V24H36V18L27 9Z" fill="#E5EFF5"/>
</g>
<defs>
<filter id="filter0_d" x="-4" y="-2" width="56" height="56" filterUnits="userSpaceOnUse" color-interpolation-filters="sRGB">
<feFlood flood-opacity="0" result="BackgroundImageFix"/>
<feColorMatrix in="SourceAlpha" type="matrix" values="0 0 0 0 0 0 0 0 0 0 0 0 0 0 0 0 0 0 127 0"/>
<feOffset dy="2"/>
<feGaussianBlur stdDeviation="2"/>
<feColorMatrix type="matrix" values="0 0 0 0 0 0 0 0 0 0 0 0 0 0 0 0 0 0 0.25 0"/>
<feBlend mode="normal" in2="BackgroundImageFix" result="effect1_dropShadow"/>
<feBlend mode="normal" in="SourceGraphic" in2="effect1_dropShadow" result="shape"/>
</filter>
</defs>
</svg>
