<svg width="49" height="49" viewBox="0 0 49 49" fill="none" xmlns="http://www.w3.org/2000/svg">
<g filter="url(#filter0_d)">
<path fill-rule="evenodd" clip-rule="evenodd" d="M30.8687 13C30.8687 14.5913 30.2365 16.1174 29.1113 17.2426C27.9861 18.3679 26.46 19 24.8687 19C24.5687 19 24.2887 19 23.9887 19L12.4687 40.66L8.86865 43V38.76L20.4487 17C18.2487 14.54 18.4487 10.74 20.9287 8.52C22.0087 7.56 23.4087 7 24.8687 7V3C25.3991 3 25.9078 3.21071 26.2829 3.58579C26.6579 3.96086 26.8687 4.46957 26.8687 5V7.36C29.2687 8.2 30.8687 10.46 30.8687 13ZM26.8687 13C26.8687 12.4696 26.6579 11.9609 26.2829 11.5858C25.9078 11.2107 25.3991 11 24.8687 11C24.3382 11 23.8295 11.2107 23.4544 11.5858C23.0794 11.9609 22.8687 12.4696 22.8687 13C22.8687 13.5304 23.0794 14.0391 23.4544 14.4142C23.8295 14.7893 24.3382 15 24.8687 15C25.3991 15 25.9078 14.7893 26.2829 14.4142C26.6579 14.0391 26.8687 13.5304 26.8687 13Z" fill="#E5EFF5"/>
<path d="M26.2162 19.8704L29.0752 25.2479C29.5072 25.185 29.9569 25.1544 30.4229 25.1544C31.9382 25.1544 33.1147 25.474 34.0783 25.9729L29.8178 17.9503C28.8532 18.9147 27.6085 19.5989 26.2162 19.8704Z" fill="#E5EFF5"/>
<path d="M40.8689 38.7598V42.9998L37.2689 40.6598L33.6936 33.935C34.4668 34.2012 35.3632 34.3586 36.4264 34.3586C37.1286 34.3586 37.7941 34.2889 38.4176 34.144L40.8689 38.7598Z" fill="#E5EFF5"/>
<path d="M30.4229 26.1519C27.2171 26.1519 25.2283 27.7443 24.4238 30.9502C25.6245 29.3533 27.025 28.7574 28.6219 29.1536C29.5344 29.3817 30.1948 30.0421 30.9152 30.7745C32.0919 31.9752 33.4247 33.356 36.4264 33.356C39.6323 33.356 41.6254 31.7591 42.4299 28.5533C41.2292 30.1502 39.8244 30.7505 38.2275 30.3543C37.3149 30.1262 36.6666 29.4658 35.9341 28.7334C34.7575 27.5327 33.4247 26.1519 30.4229 26.1519Z" fill="#06B6D4"/>
</g>
<defs>
<filter id="filter0_d" x="-3.13135" y="-2" width="56" height="56" filterUnits="userSpaceOnUse" color-interpolation-filters="sRGB">
<feFlood flood-opacity="0" result="BackgroundImageFix"/>
<feColorMatrix in="SourceAlpha" type="matrix" values="0 0 0 0 0 0 0 0 0 0 0 0 0 0 0 0 0 0 127 0"/>
<feOffset dy="2"/>
<feGaussianBlur stdDeviation="2"/>
<feColorMatrix type="matrix" values="0 0 0 0 0 0 0 0 0 0 0 0 0 0 0 0 0 0 0.25 0"/>
<feBlend mode="normal" in2="BackgroundImageFix" result="effect1_dropShadow"/>
<feBlend mode="normal" in="SourceGraphic" in2="effect1_dropShadow" result="shape"/>
</filter>
</defs>
</svg>
